<mxfile host="app.diagrams.net" modified="2021-01-06T17:24:51.282Z" agent="5.0 (Windows)" etag="gZhiunOrE6lTakQy0ykF" compressed="false" version="14.1.8" type="device" pages="4">
  <diagram id="V9WtqbCThzajBIJfUEE2" name="FETCH">
    <mxGraphModel dx="355" dy="733" grid="1" gridSize="10" guides="1" tooltips="1" connect="1" arrows="1" fold="1" page="1" pageScale="1" pageWidth="827" pageHeight="1169" math="0" shadow="0">
      <root>
        <mxCell id="wr7DT4UqWtYj8msZSYL8-0" />
        <mxCell id="wr7DT4UqWtYj8msZSYL8-1" parent="wr7DT4UqWtYj8msZSYL8-0" />
        <mxCell id="Qa4qUFWGXMH2oSkJCyma-0" style="edgeStyle=orthogonalEdgeStyle;rounded=0;orthogonalLoop=1;jettySize=auto;html=1;entryX=0.5;entryY=0;entryDx=0;entryDy=0;" parent="wr7DT4UqWtYj8msZSYL8-1" source="Qa4qUFWGXMH2oSkJCyma-1" target="Qa4qUFWGXMH2oSkJCyma-2" edge="1">
          <mxGeometry relative="1" as="geometry" />
        </mxCell>
        <mxCell id="Qa4qUFWGXMH2oSkJCyma-1" value="&lt;div&gt;FETCH&lt;/div&gt;" style="rounded=0;whiteSpace=wrap;html=1;" parent="wr7DT4UqWtYj8msZSYL8-1" vertex="1">
          <mxGeometry x="940" y="40" width="40" height="20" as="geometry" />
        </mxCell>
        <mxCell id="Qa4qUFWGXMH2oSkJCyma-2" value="" style="rounded=0;whiteSpace=wrap;html=1;" parent="wr7DT4UqWtYj8msZSYL8-1" vertex="1">
          <mxGeometry x="880" y="80" width="160" height="40" as="geometry" />
        </mxCell>
        <mxCell id="Qa4qUFWGXMH2oSkJCyma-3" style="edgeStyle=orthogonalEdgeStyle;rounded=0;orthogonalLoop=1;jettySize=auto;html=1;" parent="wr7DT4UqWtYj8msZSYL8-1" edge="1">
          <mxGeometry relative="1" as="geometry">
            <mxPoint x="960" y="160" as="targetPoint" />
            <mxPoint x="960" y="120" as="sourcePoint" />
          </mxGeometry>
        </mxCell>
        <mxCell id="Qa4qUFWGXMH2oSkJCyma-4" style="edgeStyle=orthogonalEdgeStyle;rounded=0;orthogonalLoop=1;jettySize=auto;html=1;" parent="wr7DT4UqWtYj8msZSYL8-1" edge="1">
          <mxGeometry relative="1" as="geometry">
            <mxPoint x="1080" y="659.31" as="targetPoint" />
            <mxPoint x="1040" y="659.31" as="sourcePoint" />
          </mxGeometry>
        </mxCell>
        <mxCell id="Qa4qUFWGXMH2oSkJCyma-5" style="edgeStyle=orthogonalEdgeStyle;rounded=0;orthogonalLoop=1;jettySize=auto;html=1;" parent="wr7DT4UqWtYj8msZSYL8-1" source="Qa4qUFWGXMH2oSkJCyma-6" edge="1">
          <mxGeometry relative="1" as="geometry">
            <mxPoint x="960" y="240" as="targetPoint" />
          </mxGeometry>
        </mxCell>
        <mxCell id="Qa4qUFWGXMH2oSkJCyma-6" value="notpswSTARTandFETCH" style="shape=hexagon;perimeter=hexagonPerimeter2;whiteSpace=wrap;html=1;fixedSize=1;" parent="wr7DT4UqWtYj8msZSYL8-1" vertex="1">
          <mxGeometry x="880" y="160" width="160" height="40" as="geometry" />
        </mxCell>
        <mxCell id="Qa4qUFWGXMH2oSkJCyma-7" value="FETCH" style="rounded=0;whiteSpace=wrap;html=1;" parent="wr7DT4UqWtYj8msZSYL8-1" vertex="1">
          <mxGeometry x="1080" y="650" width="40" height="20" as="geometry" />
        </mxCell>
        <mxCell id="Qa4qUFWGXMH2oSkJCyma-8" value="0" style="text;html=1;strokeColor=none;fillColor=none;align=center;verticalAlign=middle;whiteSpace=wrap;rounded=0;" parent="wr7DT4UqWtYj8msZSYL8-1" vertex="1">
          <mxGeometry x="920" y="210" width="40" height="20" as="geometry" />
        </mxCell>
        <mxCell id="Qa4qUFWGXMH2oSkJCyma-9" style="edgeStyle=orthogonalEdgeStyle;rounded=0;orthogonalLoop=1;jettySize=auto;html=1;entryX=0.5;entryY=0;entryDx=0;entryDy=0;" parent="wr7DT4UqWtYj8msZSYL8-1" source="Qa4qUFWGXMH2oSkJCyma-10" target="Qa4qUFWGXMH2oSkJCyma-13" edge="1">
          <mxGeometry relative="1" as="geometry" />
        </mxCell>
        <mxCell id="Qa4qUFWGXMH2oSkJCyma-10" value="rdMEM, ldMDR" style="rounded=0;whiteSpace=wrap;html=1;" parent="wr7DT4UqWtYj8msZSYL8-1" vertex="1">
          <mxGeometry x="880" y="320" width="160" height="40" as="geometry" />
        </mxCell>
        <mxCell id="Qa4qUFWGXMH2oSkJCyma-11" style="edgeStyle=orthogonalEdgeStyle;rounded=0;orthogonalLoop=1;jettySize=auto;html=1;entryX=1;entryY=0.5;entryDx=0;entryDy=0;" parent="wr7DT4UqWtYj8msZSYL8-1" source="Qa4qUFWGXMH2oSkJCyma-13" target="Qa4qUFWGXMH2oSkJCyma-10" edge="1">
          <mxGeometry relative="1" as="geometry">
            <mxPoint x="1080" y="340" as="targetPoint" />
            <Array as="points">
              <mxPoint x="1080" y="420" />
              <mxPoint x="1080" y="340" />
            </Array>
          </mxGeometry>
        </mxCell>
        <mxCell id="Qa4qUFWGXMH2oSkJCyma-12" style="edgeStyle=orthogonalEdgeStyle;rounded=0;orthogonalLoop=1;jettySize=auto;html=1;" parent="wr7DT4UqWtYj8msZSYL8-1" source="Qa4qUFWGXMH2oSkJCyma-13" edge="1">
          <mxGeometry relative="1" as="geometry">
            <mxPoint x="960" y="480" as="targetPoint" />
          </mxGeometry>
        </mxCell>
        <mxCell id="Qa4qUFWGXMH2oSkJCyma-13" value="notFCBUS" style="shape=hexagon;perimeter=hexagonPerimeter2;whiteSpace=wrap;html=1;fixedSize=1;" parent="wr7DT4UqWtYj8msZSYL8-1" vertex="1">
          <mxGeometry x="880" y="400" width="160" height="40" as="geometry" />
        </mxCell>
        <mxCell id="Qa4qUFWGXMH2oSkJCyma-14" value="1" style="text;html=1;strokeColor=none;fillColor=none;align=center;verticalAlign=middle;whiteSpace=wrap;rounded=0;" parent="wr7DT4UqWtYj8msZSYL8-1" vertex="1">
          <mxGeometry x="1040" y="400" width="40" height="20" as="geometry" />
        </mxCell>
        <mxCell id="Qa4qUFWGXMH2oSkJCyma-15" value="0" style="text;html=1;strokeColor=none;fillColor=none;align=center;verticalAlign=middle;whiteSpace=wrap;rounded=0;" parent="wr7DT4UqWtYj8msZSYL8-1" vertex="1">
          <mxGeometry x="920" y="450" width="40" height="20" as="geometry" />
        </mxCell>
        <mxCell id="Qa4qUFWGXMH2oSkJCyma-26" style="edgeStyle=orthogonalEdgeStyle;rounded=0;orthogonalLoop=1;jettySize=auto;html=1;" parent="wr7DT4UqWtYj8msZSYL8-1" edge="1">
          <mxGeometry relative="1" as="geometry">
            <mxPoint x="1540" y="140" as="targetPoint" />
            <mxPoint x="1540" y="120" as="sourcePoint" />
          </mxGeometry>
        </mxCell>
        <mxCell id="Qa4qUFWGXMH2oSkJCyma-27" value="FETCH" style="rounded=0;whiteSpace=wrap;html=1;" parent="wr7DT4UqWtYj8msZSYL8-1" vertex="1">
          <mxGeometry x="1520" y="140" width="40" height="20" as="geometry" />
        </mxCell>
        <mxCell id="Qa4qUFWGXMH2oSkJCyma-28" style="edgeStyle=orthogonalEdgeStyle;rounded=0;orthogonalLoop=1;jettySize=auto;html=1;entryX=1;entryY=0.5;entryDx=0;entryDy=0;" parent="wr7DT4UqWtYj8msZSYL8-1" edge="1">
          <mxGeometry relative="1" as="geometry">
            <mxPoint x="1040" y="100" as="targetPoint" />
            <Array as="points">
              <mxPoint x="1080" y="180" />
              <mxPoint x="1080" y="100" />
            </Array>
            <mxPoint x="1040" y="180.0000000000001" as="sourcePoint" />
          </mxGeometry>
        </mxCell>
        <mxCell id="Qa4qUFWGXMH2oSkJCyma-29" value="1" style="text;html=1;strokeColor=none;fillColor=none;align=center;verticalAlign=middle;whiteSpace=wrap;rounded=0;" parent="wr7DT4UqWtYj8msZSYL8-1" vertex="1">
          <mxGeometry x="1040" y="160" width="40" height="20" as="geometry" />
        </mxCell>
        <mxCell id="Qa4qUFWGXMH2oSkJCyma-32" style="edgeStyle=orthogonalEdgeStyle;rounded=0;orthogonalLoop=1;jettySize=auto;html=1;entryX=0.5;entryY=0;entryDx=0;entryDy=0;" parent="wr7DT4UqWtYj8msZSYL8-1" source="Qa4qUFWGXMH2oSkJCyma-33" edge="1">
          <mxGeometry relative="1" as="geometry">
            <mxPoint x="960" y="320" as="targetPoint" />
          </mxGeometry>
        </mxCell>
        <mxCell id="Qa4qUFWGXMH2oSkJCyma-33" value="incPC, ldMAR" style="rounded=0;whiteSpace=wrap;html=1;" parent="wr7DT4UqWtYj8msZSYL8-1" vertex="1">
          <mxGeometry x="880" y="240" width="160" height="40" as="geometry" />
        </mxCell>
        <mxCell id="Qa4qUFWGXMH2oSkJCyma-34" value="ldIR[31..24]" style="rounded=0;whiteSpace=wrap;html=1;" parent="wr7DT4UqWtYj8msZSYL8-1" vertex="1">
          <mxGeometry x="880" y="480" width="160" height="40" as="geometry" />
        </mxCell>
        <mxCell id="Qa4qUFWGXMH2oSkJCyma-36" style="edgeStyle=orthogonalEdgeStyle;rounded=0;orthogonalLoop=1;jettySize=auto;html=1;entryX=0.5;entryY=0;entryDx=0;entryDy=0;" parent="wr7DT4UqWtYj8msZSYL8-1" edge="1">
          <mxGeometry relative="1" as="geometry">
            <mxPoint x="959.31" y="520" as="sourcePoint" />
            <mxPoint x="959.31" y="560" as="targetPoint" />
          </mxGeometry>
        </mxCell>
        <mxCell id="Qa4qUFWGXMH2oSkJCyma-62" value="" style="edgeStyle=orthogonalEdgeStyle;rounded=0;orthogonalLoop=1;jettySize=auto;html=1;" parent="wr7DT4UqWtYj8msZSYL8-1" source="Qa4qUFWGXMH2oSkJCyma-37" target="Qa4qUFWGXMH2oSkJCyma-61" edge="1">
          <mxGeometry relative="1" as="geometry" />
        </mxCell>
        <mxCell id="Qa4qUFWGXMH2oSkJCyma-37" value="" style="rounded=0;whiteSpace=wrap;html=1;" parent="wr7DT4UqWtYj8msZSYL8-1" vertex="1">
          <mxGeometry x="880" y="560" width="160" height="40" as="geometry" />
        </mxCell>
        <mxCell id="Qa4qUFWGXMH2oSkJCyma-38" style="edgeStyle=orthogonalEdgeStyle;rounded=0;orthogonalLoop=1;jettySize=auto;html=1;entryX=0.5;entryY=0;entryDx=0;entryDy=0;" parent="wr7DT4UqWtYj8msZSYL8-1" target="Qa4qUFWGXMH2oSkJCyma-39" edge="1">
          <mxGeometry relative="1" as="geometry">
            <mxPoint x="960" y="600.0000000000001" as="sourcePoint" />
          </mxGeometry>
        </mxCell>
        <mxCell id="Qa4qUFWGXMH2oSkJCyma-39" value="&lt;div&gt;grinst&lt;/div&gt;" style="shape=hexagon;perimeter=hexagonPerimeter2;whiteSpace=wrap;html=1;fixedSize=1;" parent="wr7DT4UqWtYj8msZSYL8-1" vertex="1">
          <mxGeometry x="880" y="640" width="160" height="40" as="geometry" />
        </mxCell>
        <mxCell id="Qa4qUFWGXMH2oSkJCyma-41" style="edgeStyle=orthogonalEdgeStyle;rounded=0;orthogonalLoop=1;jettySize=auto;html=1;entryX=0.5;entryY=0;entryDx=0;entryDy=0;" parent="wr7DT4UqWtYj8msZSYL8-1" edge="1">
          <mxGeometry relative="1" as="geometry">
            <mxPoint x="959.81" y="680" as="sourcePoint" />
            <mxPoint x="959.81" y="720" as="targetPoint" />
          </mxGeometry>
        </mxCell>
        <mxCell id="Qa4qUFWGXMH2oSkJCyma-42" value="1" style="text;html=1;strokeColor=none;fillColor=none;align=center;verticalAlign=middle;whiteSpace=wrap;rounded=0;" parent="wr7DT4UqWtYj8msZSYL8-1" vertex="1">
          <mxGeometry x="1040" y="640" width="40" height="20" as="geometry" />
        </mxCell>
        <mxCell id="Qa4qUFWGXMH2oSkJCyma-43" value="0" style="text;html=1;strokeColor=none;fillColor=none;align=center;verticalAlign=middle;whiteSpace=wrap;rounded=0;" parent="wr7DT4UqWtYj8msZSYL8-1" vertex="1">
          <mxGeometry x="920" y="690" width="40" height="20" as="geometry" />
        </mxCell>
        <mxCell id="Qa4qUFWGXMH2oSkJCyma-45" style="edgeStyle=orthogonalEdgeStyle;rounded=0;orthogonalLoop=1;jettySize=auto;html=1;" parent="wr7DT4UqWtYj8msZSYL8-1" edge="1">
          <mxGeometry relative="1" as="geometry">
            <mxPoint x="1080" y="809.31" as="targetPoint" />
            <mxPoint x="1040" y="809.31" as="sourcePoint" />
          </mxGeometry>
        </mxCell>
        <mxCell id="Qa4qUFWGXMH2oSkJCyma-46" value="EX" style="rounded=0;whiteSpace=wrap;html=1;" parent="wr7DT4UqWtYj8msZSYL8-1" vertex="1">
          <mxGeometry x="1080" y="800" width="40" height="20" as="geometry" />
        </mxCell>
        <mxCell id="Qa4qUFWGXMH2oSkJCyma-47" value="bezadr" style="shape=hexagon;perimeter=hexagonPerimeter2;whiteSpace=wrap;html=1;fixedSize=1;" parent="wr7DT4UqWtYj8msZSYL8-1" vertex="1">
          <mxGeometry x="880" y="790" width="160" height="40" as="geometry" />
        </mxCell>
        <mxCell id="Qa4qUFWGXMH2oSkJCyma-48" style="edgeStyle=orthogonalEdgeStyle;rounded=0;orthogonalLoop=1;jettySize=auto;html=1;entryX=0.5;entryY=0;entryDx=0;entryDy=0;" parent="wr7DT4UqWtYj8msZSYL8-1" edge="1">
          <mxGeometry relative="1" as="geometry">
            <mxPoint x="959.81" y="830" as="sourcePoint" />
            <mxPoint x="959.81" y="870" as="targetPoint" />
          </mxGeometry>
        </mxCell>
        <mxCell id="Qa4qUFWGXMH2oSkJCyma-49" value="1" style="text;html=1;strokeColor=none;fillColor=none;align=center;verticalAlign=middle;whiteSpace=wrap;rounded=0;" parent="wr7DT4UqWtYj8msZSYL8-1" vertex="1">
          <mxGeometry x="1040" y="790" width="40" height="20" as="geometry" />
        </mxCell>
        <mxCell id="Qa4qUFWGXMH2oSkJCyma-50" value="0" style="text;html=1;strokeColor=none;fillColor=none;align=center;verticalAlign=middle;whiteSpace=wrap;rounded=0;" parent="wr7DT4UqWtYj8msZSYL8-1" vertex="1">
          <mxGeometry x="920" y="840" width="40" height="20" as="geometry" />
        </mxCell>
        <mxCell id="Qa4qUFWGXMH2oSkJCyma-51" style="edgeStyle=orthogonalEdgeStyle;rounded=0;orthogonalLoop=1;jettySize=auto;html=1;entryX=0.5;entryY=0;entryDx=0;entryDy=0;" parent="wr7DT4UqWtYj8msZSYL8-1" source="Qa4qUFWGXMH2oSkJCyma-52" target="Qa4qUFWGXMH2oSkJCyma-55" edge="1">
          <mxGeometry relative="1" as="geometry" />
        </mxCell>
        <mxCell id="Qa4qUFWGXMH2oSkJCyma-52" value="rdMEM, ldMDR" style="rounded=0;whiteSpace=wrap;html=1;" parent="wr7DT4UqWtYj8msZSYL8-1" vertex="1">
          <mxGeometry x="880" y="950" width="160" height="40" as="geometry" />
        </mxCell>
        <mxCell id="Qa4qUFWGXMH2oSkJCyma-53" style="edgeStyle=orthogonalEdgeStyle;rounded=0;orthogonalLoop=1;jettySize=auto;html=1;entryX=1;entryY=0.5;entryDx=0;entryDy=0;" parent="wr7DT4UqWtYj8msZSYL8-1" source="Qa4qUFWGXMH2oSkJCyma-55" target="Qa4qUFWGXMH2oSkJCyma-52" edge="1">
          <mxGeometry relative="1" as="geometry">
            <mxPoint x="1080" y="970" as="targetPoint" />
            <Array as="points">
              <mxPoint x="1080" y="1050" />
              <mxPoint x="1080" y="970" />
            </Array>
          </mxGeometry>
        </mxCell>
        <mxCell id="Qa4qUFWGXMH2oSkJCyma-54" style="edgeStyle=orthogonalEdgeStyle;rounded=0;orthogonalLoop=1;jettySize=auto;html=1;" parent="wr7DT4UqWtYj8msZSYL8-1" source="Qa4qUFWGXMH2oSkJCyma-55" edge="1">
          <mxGeometry relative="1" as="geometry">
            <mxPoint x="960" y="1110" as="targetPoint" />
          </mxGeometry>
        </mxCell>
        <mxCell id="Qa4qUFWGXMH2oSkJCyma-55" value="notFCBUS" style="shape=hexagon;perimeter=hexagonPerimeter2;whiteSpace=wrap;html=1;fixedSize=1;" parent="wr7DT4UqWtYj8msZSYL8-1" vertex="1">
          <mxGeometry x="880" y="1030" width="160" height="40" as="geometry" />
        </mxCell>
        <mxCell id="Qa4qUFWGXMH2oSkJCyma-56" value="1" style="text;html=1;strokeColor=none;fillColor=none;align=center;verticalAlign=middle;whiteSpace=wrap;rounded=0;" parent="wr7DT4UqWtYj8msZSYL8-1" vertex="1">
          <mxGeometry x="1040" y="1030" width="40" height="20" as="geometry" />
        </mxCell>
        <mxCell id="Qa4qUFWGXMH2oSkJCyma-57" value="0" style="text;html=1;strokeColor=none;fillColor=none;align=center;verticalAlign=middle;whiteSpace=wrap;rounded=0;" parent="wr7DT4UqWtYj8msZSYL8-1" vertex="1">
          <mxGeometry x="920" y="1080" width="40" height="20" as="geometry" />
        </mxCell>
        <mxCell id="Qa4qUFWGXMH2oSkJCyma-58" style="edgeStyle=orthogonalEdgeStyle;rounded=0;orthogonalLoop=1;jettySize=auto;html=1;entryX=0.5;entryY=0;entryDx=0;entryDy=0;" parent="wr7DT4UqWtYj8msZSYL8-1" source="Qa4qUFWGXMH2oSkJCyma-59" edge="1">
          <mxGeometry relative="1" as="geometry">
            <mxPoint x="960" y="950" as="targetPoint" />
          </mxGeometry>
        </mxCell>
        <mxCell id="Qa4qUFWGXMH2oSkJCyma-59" value="incPC, ldMAR" style="rounded=0;whiteSpace=wrap;html=1;" parent="wr7DT4UqWtYj8msZSYL8-1" vertex="1">
          <mxGeometry x="880" y="870" width="160" height="40" as="geometry" />
        </mxCell>
        <mxCell id="Qa4qUFWGXMH2oSkJCyma-60" value="ldIR[23..16]" style="rounded=0;whiteSpace=wrap;html=1;" parent="wr7DT4UqWtYj8msZSYL8-1" vertex="1">
          <mxGeometry x="880" y="1110" width="160" height="40" as="geometry" />
        </mxCell>
        <mxCell id="Qa4qUFWGXMH2oSkJCyma-61" value="" style="rounded=0;whiteSpace=wrap;html=1;" parent="wr7DT4UqWtYj8msZSYL8-1" vertex="1">
          <mxGeometry x="880" y="710" width="160" height="40" as="geometry" />
        </mxCell>
        <mxCell id="Qa4qUFWGXMH2oSkJCyma-63" style="edgeStyle=orthogonalEdgeStyle;rounded=0;orthogonalLoop=1;jettySize=auto;html=1;entryX=0.5;entryY=0;entryDx=0;entryDy=0;" parent="wr7DT4UqWtYj8msZSYL8-1" edge="1">
          <mxGeometry relative="1" as="geometry">
            <mxPoint x="959.77" y="750" as="sourcePoint" />
            <mxPoint x="959.77" y="790" as="targetPoint" />
          </mxGeometry>
        </mxCell>
        <mxCell id="Qa4qUFWGXMH2oSkJCyma-65" value="" style="rounded=0;whiteSpace=wrap;html=1;" parent="wr7DT4UqWtYj8msZSYL8-1" vertex="1">
          <mxGeometry x="1160" y="150" width="160" height="40" as="geometry" />
        </mxCell>
        <mxCell id="Qa4qUFWGXMH2oSkJCyma-66" style="edgeStyle=orthogonalEdgeStyle;rounded=0;orthogonalLoop=1;jettySize=auto;html=1;" parent="wr7DT4UqWtYj8msZSYL8-1" edge="1">
          <mxGeometry relative="1" as="geometry">
            <mxPoint x="1360" y="249.30999999999995" as="targetPoint" />
            <mxPoint x="1320" y="249.30999999999995" as="sourcePoint" />
          </mxGeometry>
        </mxCell>
        <mxCell id="Qa4qUFWGXMH2oSkJCyma-67" value="FETCH" style="rounded=0;whiteSpace=wrap;html=1;" parent="wr7DT4UqWtYj8msZSYL8-1" vertex="1">
          <mxGeometry x="1360" y="240" width="40" height="20" as="geometry" />
        </mxCell>
        <mxCell id="Qa4qUFWGXMH2oSkJCyma-68" value="" style="edgeStyle=orthogonalEdgeStyle;rounded=0;orthogonalLoop=1;jettySize=auto;html=1;" parent="wr7DT4UqWtYj8msZSYL8-1" edge="1">
          <mxGeometry relative="1" as="geometry">
            <mxPoint x="1240" y="190" as="sourcePoint" />
            <mxPoint x="1240" y="300" as="targetPoint" />
          </mxGeometry>
        </mxCell>
        <mxCell id="Qa4qUFWGXMH2oSkJCyma-69" style="edgeStyle=orthogonalEdgeStyle;rounded=0;orthogonalLoop=1;jettySize=auto;html=1;entryX=0.5;entryY=0;entryDx=0;entryDy=0;" parent="wr7DT4UqWtYj8msZSYL8-1" target="Qa4qUFWGXMH2oSkJCyma-70" edge="1">
          <mxGeometry relative="1" as="geometry">
            <mxPoint x="1240" y="190" as="sourcePoint" />
          </mxGeometry>
        </mxCell>
        <mxCell id="Qa4qUFWGXMH2oSkJCyma-70" value="graddr" style="shape=hexagon;perimeter=hexagonPerimeter2;whiteSpace=wrap;html=1;fixedSize=1;" parent="wr7DT4UqWtYj8msZSYL8-1" vertex="1">
          <mxGeometry x="1160" y="230" width="160" height="40" as="geometry" />
        </mxCell>
        <mxCell id="Qa4qUFWGXMH2oSkJCyma-71" value="1" style="text;html=1;strokeColor=none;fillColor=none;align=center;verticalAlign=middle;whiteSpace=wrap;rounded=0;" parent="wr7DT4UqWtYj8msZSYL8-1" vertex="1">
          <mxGeometry x="1320" y="230" width="40" height="20" as="geometry" />
        </mxCell>
        <mxCell id="Qa4qUFWGXMH2oSkJCyma-72" value="0" style="text;html=1;strokeColor=none;fillColor=none;align=center;verticalAlign=middle;whiteSpace=wrap;rounded=0;" parent="wr7DT4UqWtYj8msZSYL8-1" vertex="1">
          <mxGeometry x="1200" y="280" width="40" height="20" as="geometry" />
        </mxCell>
        <mxCell id="Qa4qUFWGXMH2oSkJCyma-73" style="edgeStyle=orthogonalEdgeStyle;rounded=0;orthogonalLoop=1;jettySize=auto;html=1;" parent="wr7DT4UqWtYj8msZSYL8-1" edge="1">
          <mxGeometry relative="1" as="geometry">
            <mxPoint x="1360" y="99.30999999999995" as="targetPoint" />
            <mxPoint x="1320" y="99.30999999999995" as="sourcePoint" />
          </mxGeometry>
        </mxCell>
        <mxCell id="Qa4qUFWGXMH2oSkJCyma-74" value="&lt;div&gt;EX&lt;/div&gt;" style="rounded=0;whiteSpace=wrap;html=1;" parent="wr7DT4UqWtYj8msZSYL8-1" vertex="1">
          <mxGeometry x="1360" y="90" width="40" height="20" as="geometry" />
        </mxCell>
        <mxCell id="Qa4qUFWGXMH2oSkJCyma-75" value="" style="edgeStyle=orthogonalEdgeStyle;rounded=0;orthogonalLoop=1;jettySize=auto;html=1;" parent="wr7DT4UqWtYj8msZSYL8-1" edge="1">
          <mxGeometry relative="1" as="geometry">
            <mxPoint x="1240" y="40" as="sourcePoint" />
            <mxPoint x="1240" y="150" as="targetPoint" />
          </mxGeometry>
        </mxCell>
        <mxCell id="Qa4qUFWGXMH2oSkJCyma-77" value="jmp2" style="shape=hexagon;perimeter=hexagonPerimeter2;whiteSpace=wrap;html=1;fixedSize=1;" parent="wr7DT4UqWtYj8msZSYL8-1" vertex="1">
          <mxGeometry x="1160" y="80" width="160" height="40" as="geometry" />
        </mxCell>
        <mxCell id="Qa4qUFWGXMH2oSkJCyma-78" value="1" style="text;html=1;strokeColor=none;fillColor=none;align=center;verticalAlign=middle;whiteSpace=wrap;rounded=0;" parent="wr7DT4UqWtYj8msZSYL8-1" vertex="1">
          <mxGeometry x="1320" y="80" width="40" height="20" as="geometry" />
        </mxCell>
        <mxCell id="Qa4qUFWGXMH2oSkJCyma-79" value="0" style="text;html=1;strokeColor=none;fillColor=none;align=center;verticalAlign=middle;whiteSpace=wrap;rounded=0;" parent="wr7DT4UqWtYj8msZSYL8-1" vertex="1">
          <mxGeometry x="1200" y="130" width="40" height="20" as="geometry" />
        </mxCell>
        <mxCell id="Qa4qUFWGXMH2oSkJCyma-80" value="" style="rounded=0;whiteSpace=wrap;html=1;" parent="wr7DT4UqWtYj8msZSYL8-1" vertex="1">
          <mxGeometry x="1160" y="300" width="160" height="40" as="geometry" />
        </mxCell>
        <mxCell id="Qa4qUFWGXMH2oSkJCyma-81" style="edgeStyle=orthogonalEdgeStyle;rounded=0;orthogonalLoop=1;jettySize=auto;html=1;" parent="wr7DT4UqWtYj8msZSYL8-1" edge="1">
          <mxGeometry relative="1" as="geometry">
            <mxPoint x="1360" y="399.30999999999995" as="targetPoint" />
            <mxPoint x="1320" y="399.30999999999995" as="sourcePoint" />
          </mxGeometry>
        </mxCell>
        <mxCell id="Qa4qUFWGXMH2oSkJCyma-82" value="ID" style="rounded=0;whiteSpace=wrap;html=1;" parent="wr7DT4UqWtYj8msZSYL8-1" vertex="1">
          <mxGeometry x="1360" y="390" width="40" height="20" as="geometry" />
        </mxCell>
        <mxCell id="Qa4qUFWGXMH2oSkJCyma-83" value="" style="edgeStyle=orthogonalEdgeStyle;rounded=0;orthogonalLoop=1;jettySize=auto;html=1;" parent="wr7DT4UqWtYj8msZSYL8-1" edge="1">
          <mxGeometry relative="1" as="geometry">
            <mxPoint x="1240" y="340" as="sourcePoint" />
            <mxPoint x="1240" y="450" as="targetPoint" />
          </mxGeometry>
        </mxCell>
        <mxCell id="Qa4qUFWGXMH2oSkJCyma-84" style="edgeStyle=orthogonalEdgeStyle;rounded=0;orthogonalLoop=1;jettySize=auto;html=1;entryX=0.5;entryY=0;entryDx=0;entryDy=0;" parent="wr7DT4UqWtYj8msZSYL8-1" target="Qa4qUFWGXMH2oSkJCyma-85" edge="1">
          <mxGeometry relative="1" as="geometry">
            <mxPoint x="1240" y="340" as="sourcePoint" />
          </mxGeometry>
        </mxCell>
        <mxCell id="Qa4qUFWGXMH2oSkJCyma-85" value="addr2" style="shape=hexagon;perimeter=hexagonPerimeter2;whiteSpace=wrap;html=1;fixedSize=1;" parent="wr7DT4UqWtYj8msZSYL8-1" vertex="1">
          <mxGeometry x="1160" y="380" width="160" height="40" as="geometry" />
        </mxCell>
        <mxCell id="Qa4qUFWGXMH2oSkJCyma-86" value="1" style="text;html=1;strokeColor=none;fillColor=none;align=center;verticalAlign=middle;whiteSpace=wrap;rounded=0;" parent="wr7DT4UqWtYj8msZSYL8-1" vertex="1">
          <mxGeometry x="1320" y="380" width="40" height="20" as="geometry" />
        </mxCell>
        <mxCell id="Qa4qUFWGXMH2oSkJCyma-87" value="0" style="text;html=1;strokeColor=none;fillColor=none;align=center;verticalAlign=middle;whiteSpace=wrap;rounded=0;" parent="wr7DT4UqWtYj8msZSYL8-1" vertex="1">
          <mxGeometry x="1200" y="430" width="40" height="20" as="geometry" />
        </mxCell>
        <mxCell id="Qa4qUFWGXMH2oSkJCyma-88" style="edgeStyle=orthogonalEdgeStyle;rounded=0;orthogonalLoop=1;jettySize=auto;html=1;entryX=0.5;entryY=0;entryDx=0;entryDy=0;" parent="wr7DT4UqWtYj8msZSYL8-1" source="Qa4qUFWGXMH2oSkJCyma-89" target="Qa4qUFWGXMH2oSkJCyma-92" edge="1">
          <mxGeometry relative="1" as="geometry" />
        </mxCell>
        <mxCell id="Qa4qUFWGXMH2oSkJCyma-89" value="rdMEM, ldMDR" style="rounded=0;whiteSpace=wrap;html=1;" parent="wr7DT4UqWtYj8msZSYL8-1" vertex="1">
          <mxGeometry x="1160" y="530" width="160" height="40" as="geometry" />
        </mxCell>
        <mxCell id="Qa4qUFWGXMH2oSkJCyma-90" style="edgeStyle=orthogonalEdgeStyle;rounded=0;orthogonalLoop=1;jettySize=auto;html=1;entryX=1;entryY=0.5;entryDx=0;entryDy=0;" parent="wr7DT4UqWtYj8msZSYL8-1" source="Qa4qUFWGXMH2oSkJCyma-92" target="Qa4qUFWGXMH2oSkJCyma-89" edge="1">
          <mxGeometry relative="1" as="geometry">
            <mxPoint x="1360" y="550" as="targetPoint" />
            <Array as="points">
              <mxPoint x="1360" y="630" />
              <mxPoint x="1360" y="550" />
            </Array>
          </mxGeometry>
        </mxCell>
        <mxCell id="Qa4qUFWGXMH2oSkJCyma-91" style="edgeStyle=orthogonalEdgeStyle;rounded=0;orthogonalLoop=1;jettySize=auto;html=1;" parent="wr7DT4UqWtYj8msZSYL8-1" source="Qa4qUFWGXMH2oSkJCyma-92" edge="1">
          <mxGeometry relative="1" as="geometry">
            <mxPoint x="1240" y="690" as="targetPoint" />
          </mxGeometry>
        </mxCell>
        <mxCell id="Qa4qUFWGXMH2oSkJCyma-92" value="notFCBUS" style="shape=hexagon;perimeter=hexagonPerimeter2;whiteSpace=wrap;html=1;fixedSize=1;" parent="wr7DT4UqWtYj8msZSYL8-1" vertex="1">
          <mxGeometry x="1160" y="610" width="160" height="40" as="geometry" />
        </mxCell>
        <mxCell id="Qa4qUFWGXMH2oSkJCyma-93" value="1" style="text;html=1;strokeColor=none;fillColor=none;align=center;verticalAlign=middle;whiteSpace=wrap;rounded=0;" parent="wr7DT4UqWtYj8msZSYL8-1" vertex="1">
          <mxGeometry x="1320" y="610" width="40" height="20" as="geometry" />
        </mxCell>
        <mxCell id="Qa4qUFWGXMH2oSkJCyma-94" value="0" style="text;html=1;strokeColor=none;fillColor=none;align=center;verticalAlign=middle;whiteSpace=wrap;rounded=0;" parent="wr7DT4UqWtYj8msZSYL8-1" vertex="1">
          <mxGeometry x="1200" y="660" width="40" height="20" as="geometry" />
        </mxCell>
        <mxCell id="Qa4qUFWGXMH2oSkJCyma-95" style="edgeStyle=orthogonalEdgeStyle;rounded=0;orthogonalLoop=1;jettySize=auto;html=1;entryX=0.5;entryY=0;entryDx=0;entryDy=0;" parent="wr7DT4UqWtYj8msZSYL8-1" source="Qa4qUFWGXMH2oSkJCyma-96" edge="1">
          <mxGeometry relative="1" as="geometry">
            <mxPoint x="1240" y="530" as="targetPoint" />
          </mxGeometry>
        </mxCell>
        <mxCell id="Qa4qUFWGXMH2oSkJCyma-96" value="incPC, ldMAR" style="rounded=0;whiteSpace=wrap;html=1;" parent="wr7DT4UqWtYj8msZSYL8-1" vertex="1">
          <mxGeometry x="1160" y="450" width="160" height="40" as="geometry" />
        </mxCell>
        <mxCell id="Qa4qUFWGXMH2oSkJCyma-97" value="ldIR[15..8]" style="rounded=0;whiteSpace=wrap;html=1;" parent="wr7DT4UqWtYj8msZSYL8-1" vertex="1">
          <mxGeometry x="1160" y="690" width="160" height="40" as="geometry" />
        </mxCell>
        <mxCell id="Qa4qUFWGXMH2oSkJCyma-98" style="edgeStyle=orthogonalEdgeStyle;rounded=0;orthogonalLoop=1;jettySize=auto;html=1;" parent="wr7DT4UqWtYj8msZSYL8-1" edge="1">
          <mxGeometry relative="1" as="geometry">
            <mxPoint x="1360" y="789.31" as="targetPoint" />
            <mxPoint x="1320" y="789.31" as="sourcePoint" />
          </mxGeometry>
        </mxCell>
        <mxCell id="Qa4qUFWGXMH2oSkJCyma-99" value="&lt;div&gt;EX&lt;/div&gt;" style="rounded=0;whiteSpace=wrap;html=1;" parent="wr7DT4UqWtYj8msZSYL8-1" vertex="1">
          <mxGeometry x="1360" y="780" width="40" height="20" as="geometry" />
        </mxCell>
        <mxCell id="Qa4qUFWGXMH2oSkJCyma-100" value="" style="edgeStyle=orthogonalEdgeStyle;rounded=0;orthogonalLoop=1;jettySize=auto;html=1;" parent="wr7DT4UqWtYj8msZSYL8-1" edge="1">
          <mxGeometry relative="1" as="geometry">
            <mxPoint x="1240" y="730" as="sourcePoint" />
            <mxPoint x="1240" y="840" as="targetPoint" />
          </mxGeometry>
        </mxCell>
        <mxCell id="Qa4qUFWGXMH2oSkJCyma-101" style="edgeStyle=orthogonalEdgeStyle;rounded=0;orthogonalLoop=1;jettySize=auto;html=1;entryX=0.5;entryY=0;entryDx=0;entryDy=0;" parent="wr7DT4UqWtYj8msZSYL8-1" target="Qa4qUFWGXMH2oSkJCyma-102" edge="1">
          <mxGeometry relative="1" as="geometry">
            <mxPoint x="1240" y="730" as="sourcePoint" />
          </mxGeometry>
        </mxCell>
        <mxCell id="Qa4qUFWGXMH2oSkJCyma-102" value="jmp3" style="shape=hexagon;perimeter=hexagonPerimeter2;whiteSpace=wrap;html=1;fixedSize=1;" parent="wr7DT4UqWtYj8msZSYL8-1" vertex="1">
          <mxGeometry x="1160" y="770" width="160" height="40" as="geometry" />
        </mxCell>
        <mxCell id="Qa4qUFWGXMH2oSkJCyma-103" value="1" style="text;html=1;strokeColor=none;fillColor=none;align=center;verticalAlign=middle;whiteSpace=wrap;rounded=0;" parent="wr7DT4UqWtYj8msZSYL8-1" vertex="1">
          <mxGeometry x="1320" y="770" width="40" height="20" as="geometry" />
        </mxCell>
        <mxCell id="Qa4qUFWGXMH2oSkJCyma-104" value="0" style="text;html=1;strokeColor=none;fillColor=none;align=center;verticalAlign=middle;whiteSpace=wrap;rounded=0;" parent="wr7DT4UqWtYj8msZSYL8-1" vertex="1">
          <mxGeometry x="1200" y="820" width="40" height="20" as="geometry" />
        </mxCell>
        <mxCell id="Qa4qUFWGXMH2oSkJCyma-105" style="edgeStyle=orthogonalEdgeStyle;rounded=0;orthogonalLoop=1;jettySize=auto;html=1;entryX=0.5;entryY=0;entryDx=0;entryDy=0;" parent="wr7DT4UqWtYj8msZSYL8-1" source="Qa4qUFWGXMH2oSkJCyma-106" target="Qa4qUFWGXMH2oSkJCyma-109" edge="1">
          <mxGeometry relative="1" as="geometry" />
        </mxCell>
        <mxCell id="Qa4qUFWGXMH2oSkJCyma-106" value="rdMEM, ldMDR" style="rounded=0;whiteSpace=wrap;html=1;" parent="wr7DT4UqWtYj8msZSYL8-1" vertex="1">
          <mxGeometry x="1160" y="920" width="160" height="40" as="geometry" />
        </mxCell>
        <mxCell id="Qa4qUFWGXMH2oSkJCyma-107" style="edgeStyle=orthogonalEdgeStyle;rounded=0;orthogonalLoop=1;jettySize=auto;html=1;entryX=1;entryY=0.5;entryDx=0;entryDy=0;" parent="wr7DT4UqWtYj8msZSYL8-1" source="Qa4qUFWGXMH2oSkJCyma-109" target="Qa4qUFWGXMH2oSkJCyma-106" edge="1">
          <mxGeometry relative="1" as="geometry">
            <mxPoint x="1360" y="940" as="targetPoint" />
            <Array as="points">
              <mxPoint x="1360" y="1020" />
              <mxPoint x="1360" y="940" />
            </Array>
          </mxGeometry>
        </mxCell>
        <mxCell id="Qa4qUFWGXMH2oSkJCyma-108" style="edgeStyle=orthogonalEdgeStyle;rounded=0;orthogonalLoop=1;jettySize=auto;html=1;" parent="wr7DT4UqWtYj8msZSYL8-1" source="Qa4qUFWGXMH2oSkJCyma-109" edge="1">
          <mxGeometry relative="1" as="geometry">
            <mxPoint x="1240" y="1080" as="targetPoint" />
          </mxGeometry>
        </mxCell>
        <mxCell id="Qa4qUFWGXMH2oSkJCyma-109" value="notFCBUS" style="shape=hexagon;perimeter=hexagonPerimeter2;whiteSpace=wrap;html=1;fixedSize=1;" parent="wr7DT4UqWtYj8msZSYL8-1" vertex="1">
          <mxGeometry x="1160" y="1000" width="160" height="40" as="geometry" />
        </mxCell>
        <mxCell id="Qa4qUFWGXMH2oSkJCyma-110" value="1" style="text;html=1;strokeColor=none;fillColor=none;align=center;verticalAlign=middle;whiteSpace=wrap;rounded=0;" parent="wr7DT4UqWtYj8msZSYL8-1" vertex="1">
          <mxGeometry x="1320" y="1000" width="40" height="20" as="geometry" />
        </mxCell>
        <mxCell id="Qa4qUFWGXMH2oSkJCyma-111" value="0" style="text;html=1;strokeColor=none;fillColor=none;align=center;verticalAlign=middle;whiteSpace=wrap;rounded=0;" parent="wr7DT4UqWtYj8msZSYL8-1" vertex="1">
          <mxGeometry x="1200" y="1050" width="40" height="20" as="geometry" />
        </mxCell>
        <mxCell id="Qa4qUFWGXMH2oSkJCyma-112" style="edgeStyle=orthogonalEdgeStyle;rounded=0;orthogonalLoop=1;jettySize=auto;html=1;entryX=0.5;entryY=0;entryDx=0;entryDy=0;" parent="wr7DT4UqWtYj8msZSYL8-1" source="Qa4qUFWGXMH2oSkJCyma-113" edge="1">
          <mxGeometry relative="1" as="geometry">
            <mxPoint x="1240" y="920" as="targetPoint" />
          </mxGeometry>
        </mxCell>
        <mxCell id="Qa4qUFWGXMH2oSkJCyma-113" value="incPC, ldMAR" style="rounded=0;whiteSpace=wrap;html=1;" parent="wr7DT4UqWtYj8msZSYL8-1" vertex="1">
          <mxGeometry x="1160" y="840" width="160" height="40" as="geometry" />
        </mxCell>
        <mxCell id="Qa4qUFWGXMH2oSkJCyma-114" value="ldIR[7..0]" style="rounded=0;whiteSpace=wrap;html=1;" parent="wr7DT4UqWtYj8msZSYL8-1" vertex="1">
          <mxGeometry x="1160" y="1080" width="160" height="40" as="geometry" />
        </mxCell>
        <mxCell id="Qa4qUFWGXMH2oSkJCyma-116" style="edgeStyle=orthogonalEdgeStyle;rounded=0;orthogonalLoop=1;jettySize=auto;html=1;" parent="wr7DT4UqWtYj8msZSYL8-1" edge="1">
          <mxGeometry relative="1" as="geometry">
            <mxPoint x="1240" y="1140" as="targetPoint" />
            <mxPoint x="1240" y="1120" as="sourcePoint" />
          </mxGeometry>
        </mxCell>
        <mxCell id="Qa4qUFWGXMH2oSkJCyma-117" value="ID" style="rounded=0;whiteSpace=wrap;html=1;" parent="wr7DT4UqWtYj8msZSYL8-1" vertex="1">
          <mxGeometry x="1220" y="1140" width="40" height="20" as="geometry" />
        </mxCell>
        <mxCell id="Qa4qUFWGXMH2oSkJCyma-118" style="edgeStyle=orthogonalEdgeStyle;rounded=0;orthogonalLoop=1;jettySize=auto;html=1;entryX=0.5;entryY=0;entryDx=0;entryDy=0;" parent="wr7DT4UqWtYj8msZSYL8-1" source="Qa4qUFWGXMH2oSkJCyma-119" edge="1">
          <mxGeometry relative="1" as="geometry">
            <mxPoint x="1540" y="80" as="targetPoint" />
          </mxGeometry>
        </mxCell>
        <mxCell id="Qa4qUFWGXMH2oSkJCyma-119" value="ID" style="rounded=0;whiteSpace=wrap;html=1;" parent="wr7DT4UqWtYj8msZSYL8-1" vertex="1">
          <mxGeometry x="1520" y="40" width="40" height="20" as="geometry" />
        </mxCell>
        <mxCell id="Qa4qUFWGXMH2oSkJCyma-120" value="rsFETCH, stADDR" style="rounded=0;whiteSpace=wrap;html=1;" parent="wr7DT4UqWtYj8msZSYL8-1" vertex="1">
          <mxGeometry x="1460" y="80" width="160" height="40" as="geometry" />
        </mxCell>
        <mxCell id="Qa4qUFWGXMH2oSkJCyma-122" style="edgeStyle=orthogonalEdgeStyle;rounded=0;orthogonalLoop=1;jettySize=auto;html=1;" parent="wr7DT4UqWtYj8msZSYL8-1" edge="1">
          <mxGeometry relative="1" as="geometry">
            <mxPoint x="1540" y="280" as="targetPoint" />
            <mxPoint x="1540" y="260" as="sourcePoint" />
          </mxGeometry>
        </mxCell>
        <mxCell id="Qa4qUFWGXMH2oSkJCyma-123" value="FETCH" style="rounded=0;whiteSpace=wrap;html=1;" parent="wr7DT4UqWtYj8msZSYL8-1" vertex="1">
          <mxGeometry x="1520" y="280" width="40" height="20" as="geometry" />
        </mxCell>
        <mxCell id="Qa4qUFWGXMH2oSkJCyma-124" style="edgeStyle=orthogonalEdgeStyle;rounded=0;orthogonalLoop=1;jettySize=auto;html=1;entryX=0.5;entryY=0;entryDx=0;entryDy=0;" parent="wr7DT4UqWtYj8msZSYL8-1" source="Qa4qUFWGXMH2oSkJCyma-125" edge="1">
          <mxGeometry relative="1" as="geometry">
            <mxPoint x="1540" y="220" as="targetPoint" />
          </mxGeometry>
        </mxCell>
        <mxCell id="Qa4qUFWGXMH2oSkJCyma-125" value="EX" style="rounded=0;whiteSpace=wrap;html=1;" parent="wr7DT4UqWtYj8msZSYL8-1" vertex="1">
          <mxGeometry x="1520" y="180" width="40" height="20" as="geometry" />
        </mxCell>
        <mxCell id="Qa4qUFWGXMH2oSkJCyma-126" value="rsFETCH, stEXEC" style="rounded=0;whiteSpace=wrap;html=1;" parent="wr7DT4UqWtYj8msZSYL8-1" vertex="1">
          <mxGeometry x="1460" y="220" width="160" height="40" as="geometry" />
        </mxCell>
      </root>
    </mxGraphModel>
  </diagram>
  <diagram id="ykHOmfA3Sv1iL2rxqlcn" name="ADDR">
    <mxGraphModel dx="1182" dy="733" grid="1" gridSize="10" guides="1" tooltips="1" connect="1" arrows="1" fold="1" page="1" pageScale="1" pageWidth="827" pageHeight="1169" math="0" shadow="0">
      <root>
        <mxCell id="0" />
        <mxCell id="1" parent="0" />
        <mxCell id="m5B68YV7Llueld8YoMzW-4" style="edgeStyle=orthogonalEdgeStyle;rounded=0;orthogonalLoop=1;jettySize=auto;html=1;entryX=0.5;entryY=0;entryDx=0;entryDy=0;" parent="1" source="m5B68YV7Llueld8YoMzW-1" target="m5B68YV7Llueld8YoMzW-3" edge="1">
          <mxGeometry relative="1" as="geometry" />
        </mxCell>
        <mxCell id="m5B68YV7Llueld8YoMzW-1" value="ADDR" style="rounded=0;whiteSpace=wrap;html=1;" parent="1" vertex="1">
          <mxGeometry x="100" y="40" width="40" height="20" as="geometry" />
        </mxCell>
        <mxCell id="m5B68YV7Llueld8YoMzW-6" style="edgeStyle=orthogonalEdgeStyle;rounded=0;orthogonalLoop=1;jettySize=auto;html=1;entryX=0.5;entryY=0;entryDx=0;entryDy=0;" parent="1" source="m5B68YV7Llueld8YoMzW-3" target="m5B68YV7Llueld8YoMzW-5" edge="1">
          <mxGeometry relative="1" as="geometry" />
        </mxCell>
        <mxCell id="m5B68YV7Llueld8YoMzW-3" value="" style="rounded=0;whiteSpace=wrap;html=1;" parent="1" vertex="1">
          <mxGeometry x="40" y="80" width="160" height="40" as="geometry" />
        </mxCell>
        <mxCell id="m5B68YV7Llueld8YoMzW-7" style="edgeStyle=orthogonalEdgeStyle;rounded=0;orthogonalLoop=1;jettySize=auto;html=1;entryX=1;entryY=0.5;entryDx=0;entryDy=0;" parent="1" source="m5B68YV7Llueld8YoMzW-5" target="m5B68YV7Llueld8YoMzW-3" edge="1">
          <mxGeometry relative="1" as="geometry">
            <mxPoint x="240" y="100" as="targetPoint" />
            <Array as="points">
              <mxPoint x="240" y="180" />
              <mxPoint x="240" y="100" />
            </Array>
          </mxGeometry>
        </mxCell>
        <mxCell id="m5B68YV7Llueld8YoMzW-9" style="edgeStyle=orthogonalEdgeStyle;rounded=0;orthogonalLoop=1;jettySize=auto;html=1;entryX=0.5;entryY=0;entryDx=0;entryDy=0;" parent="1" source="m5B68YV7Llueld8YoMzW-5" target="m5B68YV7Llueld8YoMzW-8" edge="1">
          <mxGeometry relative="1" as="geometry" />
        </mxCell>
        <mxCell id="m5B68YV7Llueld8YoMzW-5" value="notADDR" style="shape=hexagon;perimeter=hexagonPerimeter2;whiteSpace=wrap;html=1;fixedSize=1;" parent="1" vertex="1">
          <mxGeometry x="40" y="160" width="160" height="40" as="geometry" />
        </mxCell>
        <mxCell id="m5B68YV7Llueld8YoMzW-13" style="edgeStyle=orthogonalEdgeStyle;rounded=0;orthogonalLoop=1;jettySize=auto;html=1;entryX=0.5;entryY=0;entryDx=0;entryDy=0;" parent="1" source="m5B68YV7Llueld8YoMzW-8" target="m5B68YV7Llueld8YoMzW-12" edge="1">
          <mxGeometry relative="1" as="geometry" />
        </mxCell>
        <mxCell id="m5B68YV7Llueld8YoMzW-8" value="" style="rounded=0;whiteSpace=wrap;html=1;" parent="1" vertex="1">
          <mxGeometry x="40" y="240" width="160" height="40" as="geometry" />
        </mxCell>
        <mxCell id="m5B68YV7Llueld8YoMzW-10" value="0" style="text;html=1;strokeColor=none;fillColor=none;align=center;verticalAlign=middle;whiteSpace=wrap;rounded=0;" parent="1" vertex="1">
          <mxGeometry x="80" y="210" width="40" height="20" as="geometry" />
        </mxCell>
        <mxCell id="m5B68YV7Llueld8YoMzW-11" value="1" style="text;html=1;strokeColor=none;fillColor=none;align=center;verticalAlign=middle;whiteSpace=wrap;rounded=0;" parent="1" vertex="1">
          <mxGeometry x="200" y="160" width="40" height="20" as="geometry" />
        </mxCell>
        <mxCell id="m5B68YV7Llueld8YoMzW-15" style="edgeStyle=orthogonalEdgeStyle;rounded=0;orthogonalLoop=1;jettySize=auto;html=1;entryX=0.5;entryY=0;entryDx=0;entryDy=0;" parent="1" source="m5B68YV7Llueld8YoMzW-12" target="m5B68YV7Llueld8YoMzW-14" edge="1">
          <mxGeometry relative="1" as="geometry" />
        </mxCell>
        <mxCell id="m5B68YV7Llueld8YoMzW-12" value="case(immed, memdir, memind, regind, postincr, postdec, regdir)" style="shape=hexagon;perimeter=hexagonPerimeter2;whiteSpace=wrap;html=1;fixedSize=1;" parent="1" vertex="1">
          <mxGeometry x="40" y="320" width="160" height="80" as="geometry" />
        </mxCell>
        <mxCell id="m5B68YV7Llueld8YoMzW-14" value="..." style="rounded=0;whiteSpace=wrap;html=1;" parent="1" vertex="1">
          <mxGeometry x="100" y="420" width="40" height="20" as="geometry" />
        </mxCell>
        <mxCell id="m5B68YV7Llueld8YoMzW-22" style="edgeStyle=orthogonalEdgeStyle;rounded=0;orthogonalLoop=1;jettySize=auto;html=1;entryX=0.5;entryY=0;entryDx=0;entryDy=0;" parent="1" source="m5B68YV7Llueld8YoMzW-16" target="m5B68YV7Llueld8YoMzW-17" edge="1">
          <mxGeometry relative="1" as="geometry" />
        </mxCell>
        <mxCell id="m5B68YV7Llueld8YoMzW-16" value="immed" style="rounded=0;whiteSpace=wrap;html=1;" parent="1" vertex="1">
          <mxGeometry x="380" y="40" width="40" height="20" as="geometry" />
        </mxCell>
        <mxCell id="m5B68YV7Llueld8YoMzW-18" style="edgeStyle=orthogonalEdgeStyle;rounded=0;orthogonalLoop=1;jettySize=auto;html=1;" parent="1" source="m5B68YV7Llueld8YoMzW-17" edge="1">
          <mxGeometry relative="1" as="geometry">
            <mxPoint x="400" y="160" as="targetPoint" />
          </mxGeometry>
        </mxCell>
        <mxCell id="m5B68YV7Llueld8YoMzW-17" value="" style="rounded=0;whiteSpace=wrap;html=1;" parent="1" vertex="1">
          <mxGeometry x="320" y="80" width="160" height="40" as="geometry" />
        </mxCell>
        <mxCell id="m5B68YV7Llueld8YoMzW-20" style="edgeStyle=orthogonalEdgeStyle;rounded=0;orthogonalLoop=1;jettySize=auto;html=1;" parent="1" source="m5B68YV7Llueld8YoMzW-19" edge="1">
          <mxGeometry relative="1" as="geometry">
            <mxPoint x="520" y="180" as="targetPoint" />
          </mxGeometry>
        </mxCell>
        <mxCell id="m5B68YV7Llueld8YoMzW-23" style="edgeStyle=orthogonalEdgeStyle;rounded=0;orthogonalLoop=1;jettySize=auto;html=1;" parent="1" source="m5B68YV7Llueld8YoMzW-19" edge="1">
          <mxGeometry relative="1" as="geometry">
            <mxPoint x="400" y="240" as="targetPoint" />
          </mxGeometry>
        </mxCell>
        <mxCell id="m5B68YV7Llueld8YoMzW-19" value="ST" style="shape=hexagon;perimeter=hexagonPerimeter2;whiteSpace=wrap;html=1;fixedSize=1;" parent="1" vertex="1">
          <mxGeometry x="320" y="160" width="160" height="40" as="geometry" />
        </mxCell>
        <mxCell id="m5B68YV7Llueld8YoMzW-21" value="EXEC" style="rounded=0;whiteSpace=wrap;html=1;" parent="1" vertex="1">
          <mxGeometry x="520" y="170" width="40" height="20" as="geometry" />
        </mxCell>
        <mxCell id="m5B68YV7Llueld8YoMzW-24" value="0" style="text;html=1;strokeColor=none;fillColor=none;align=center;verticalAlign=middle;whiteSpace=wrap;rounded=0;" parent="1" vertex="1">
          <mxGeometry x="360" y="210" width="40" height="20" as="geometry" />
        </mxCell>
        <mxCell id="m5B68YV7Llueld8YoMzW-26" style="edgeStyle=orthogonalEdgeStyle;rounded=0;orthogonalLoop=1;jettySize=auto;html=1;" parent="1" source="m5B68YV7Llueld8YoMzW-25" edge="1">
          <mxGeometry relative="1" as="geometry">
            <mxPoint x="400" y="300" as="targetPoint" />
          </mxGeometry>
        </mxCell>
        <mxCell id="m5B68YV7Llueld8YoMzW-25" value="ldB" style="rounded=0;whiteSpace=wrap;html=1;" parent="1" vertex="1">
          <mxGeometry x="320" y="240" width="160" height="40" as="geometry" />
        </mxCell>
        <mxCell id="m5B68YV7Llueld8YoMzW-27" value="EXEC" style="rounded=0;whiteSpace=wrap;html=1;" parent="1" vertex="1">
          <mxGeometry x="380" y="300" width="40" height="20" as="geometry" />
        </mxCell>
        <mxCell id="m5B68YV7Llueld8YoMzW-30" style="edgeStyle=orthogonalEdgeStyle;rounded=0;orthogonalLoop=1;jettySize=auto;html=1;entryX=0.5;entryY=0;entryDx=0;entryDy=0;" parent="1" source="m5B68YV7Llueld8YoMzW-28" target="m5B68YV7Llueld8YoMzW-29" edge="1">
          <mxGeometry relative="1" as="geometry" />
        </mxCell>
        <mxCell id="m5B68YV7Llueld8YoMzW-28" value="memdir" style="rounded=0;whiteSpace=wrap;html=1;" parent="1" vertex="1">
          <mxGeometry x="660" y="40" width="40" height="20" as="geometry" />
        </mxCell>
        <mxCell id="m5B68YV7Llueld8YoMzW-32" style="edgeStyle=orthogonalEdgeStyle;rounded=0;orthogonalLoop=1;jettySize=auto;html=1;entryX=0.5;entryY=0;entryDx=0;entryDy=0;" parent="1" source="m5B68YV7Llueld8YoMzW-29" target="m5B68YV7Llueld8YoMzW-31" edge="1">
          <mxGeometry relative="1" as="geometry" />
        </mxCell>
        <mxCell id="m5B68YV7Llueld8YoMzW-29" value="ldMAR, mxMAR0" style="rounded=0;whiteSpace=wrap;html=1;" parent="1" vertex="1">
          <mxGeometry x="600" y="80" width="160" height="40" as="geometry" />
        </mxCell>
        <mxCell id="m5B68YV7Llueld8YoMzW-31" value="READ" style="rounded=0;whiteSpace=wrap;html=1;" parent="1" vertex="1">
          <mxGeometry x="660" y="140" width="40" height="20" as="geometry" />
        </mxCell>
        <mxCell id="m5B68YV7Llueld8YoMzW-35" style="edgeStyle=orthogonalEdgeStyle;rounded=0;orthogonalLoop=1;jettySize=auto;html=1;entryX=0.5;entryY=0;entryDx=0;entryDy=0;" parent="1" source="m5B68YV7Llueld8YoMzW-33" target="m5B68YV7Llueld8YoMzW-34" edge="1">
          <mxGeometry relative="1" as="geometry" />
        </mxCell>
        <mxCell id="m5B68YV7Llueld8YoMzW-33" value="memind" style="rounded=0;whiteSpace=wrap;html=1;" parent="1" vertex="1">
          <mxGeometry x="860" y="40" width="40" height="20" as="geometry" />
        </mxCell>
        <mxCell id="m5B68YV7Llueld8YoMzW-36" style="edgeStyle=orthogonalEdgeStyle;rounded=0;orthogonalLoop=1;jettySize=auto;html=1;" parent="1" source="m5B68YV7Llueld8YoMzW-34" edge="1">
          <mxGeometry relative="1" as="geometry">
            <mxPoint x="880" y="160" as="targetPoint" />
          </mxGeometry>
        </mxCell>
        <mxCell id="m5B68YV7Llueld8YoMzW-34" value="ldMAR, mxMAR0" style="rounded=0;whiteSpace=wrap;html=1;" parent="1" vertex="1">
          <mxGeometry x="800" y="80" width="160" height="40" as="geometry" />
        </mxCell>
        <mxCell id="m5B68YV7Llueld8YoMzW-42" style="edgeStyle=orthogonalEdgeStyle;rounded=0;orthogonalLoop=1;jettySize=auto;html=1;entryX=0.5;entryY=0;entryDx=0;entryDy=0;" parent="1" source="m5B68YV7Llueld8YoMzW-38" target="m5B68YV7Llueld8YoMzW-41" edge="1">
          <mxGeometry relative="1" as="geometry" />
        </mxCell>
        <mxCell id="m5B68YV7Llueld8YoMzW-38" value="rdMEM, ldMDR" style="rounded=0;whiteSpace=wrap;html=1;" parent="1" vertex="1">
          <mxGeometry x="800" y="160" width="160" height="40" as="geometry" />
        </mxCell>
        <mxCell id="m5B68YV7Llueld8YoMzW-43" style="edgeStyle=orthogonalEdgeStyle;rounded=0;orthogonalLoop=1;jettySize=auto;html=1;entryX=1;entryY=0.5;entryDx=0;entryDy=0;" parent="1" source="m5B68YV7Llueld8YoMzW-41" target="m5B68YV7Llueld8YoMzW-38" edge="1">
          <mxGeometry relative="1" as="geometry">
            <mxPoint x="1000" y="180" as="targetPoint" />
            <Array as="points">
              <mxPoint x="1000" y="260" />
              <mxPoint x="1000" y="180" />
            </Array>
          </mxGeometry>
        </mxCell>
        <mxCell id="m5B68YV7Llueld8YoMzW-48" style="edgeStyle=orthogonalEdgeStyle;rounded=0;orthogonalLoop=1;jettySize=auto;html=1;" parent="1" source="m5B68YV7Llueld8YoMzW-41" edge="1">
          <mxGeometry relative="1" as="geometry">
            <mxPoint x="880" y="320" as="targetPoint" />
          </mxGeometry>
        </mxCell>
        <mxCell id="m5B68YV7Llueld8YoMzW-41" value="notFCBUS" style="shape=hexagon;perimeter=hexagonPerimeter2;whiteSpace=wrap;html=1;fixedSize=1;" parent="1" vertex="1">
          <mxGeometry x="800" y="240" width="160" height="40" as="geometry" />
        </mxCell>
        <mxCell id="m5B68YV7Llueld8YoMzW-44" value="1" style="text;html=1;strokeColor=none;fillColor=none;align=center;verticalAlign=middle;whiteSpace=wrap;rounded=0;" parent="1" vertex="1">
          <mxGeometry x="960" y="240" width="40" height="20" as="geometry" />
        </mxCell>
        <mxCell id="m5B68YV7Llueld8YoMzW-46" value="0" style="text;html=1;strokeColor=none;fillColor=none;align=center;verticalAlign=middle;whiteSpace=wrap;rounded=0;" parent="1" vertex="1">
          <mxGeometry x="840" y="290" width="40" height="20" as="geometry" />
        </mxCell>
        <mxCell id="m5B68YV7Llueld8YoMzW-58" style="edgeStyle=orthogonalEdgeStyle;rounded=0;orthogonalLoop=1;jettySize=auto;html=1;entryX=0.5;entryY=0;entryDx=0;entryDy=0;" parent="1" source="m5B68YV7Llueld8YoMzW-50" target="m5B68YV7Llueld8YoMzW-52" edge="1">
          <mxGeometry relative="1" as="geometry" />
        </mxCell>
        <mxCell id="m5B68YV7Llueld8YoMzW-50" value="ldMAR, mxMAR1" style="rounded=0;whiteSpace=wrap;html=1;" parent="1" vertex="1">
          <mxGeometry x="800" y="320" width="160" height="40" as="geometry" />
        </mxCell>
        <mxCell id="m5B68YV7Llueld8YoMzW-51" style="edgeStyle=orthogonalEdgeStyle;rounded=0;orthogonalLoop=1;jettySize=auto;html=1;entryX=0.5;entryY=0;entryDx=0;entryDy=0;" parent="1" source="m5B68YV7Llueld8YoMzW-52" target="m5B68YV7Llueld8YoMzW-55" edge="1">
          <mxGeometry relative="1" as="geometry" />
        </mxCell>
        <mxCell id="m5B68YV7Llueld8YoMzW-52" value="rdMEM, ldMDR" style="rounded=0;whiteSpace=wrap;html=1;" parent="1" vertex="1">
          <mxGeometry x="800" y="400" width="160" height="40" as="geometry" />
        </mxCell>
        <mxCell id="m5B68YV7Llueld8YoMzW-53" style="edgeStyle=orthogonalEdgeStyle;rounded=0;orthogonalLoop=1;jettySize=auto;html=1;entryX=1;entryY=0.5;entryDx=0;entryDy=0;" parent="1" source="m5B68YV7Llueld8YoMzW-55" target="m5B68YV7Llueld8YoMzW-52" edge="1">
          <mxGeometry relative="1" as="geometry">
            <mxPoint x="1000" y="420" as="targetPoint" />
            <Array as="points">
              <mxPoint x="1000" y="500" />
              <mxPoint x="1000" y="420" />
            </Array>
          </mxGeometry>
        </mxCell>
        <mxCell id="m5B68YV7Llueld8YoMzW-54" style="edgeStyle=orthogonalEdgeStyle;rounded=0;orthogonalLoop=1;jettySize=auto;html=1;" parent="1" source="m5B68YV7Llueld8YoMzW-55" edge="1">
          <mxGeometry relative="1" as="geometry">
            <mxPoint x="880" y="560" as="targetPoint" />
          </mxGeometry>
        </mxCell>
        <mxCell id="m5B68YV7Llueld8YoMzW-55" value="notFCBUS" style="shape=hexagon;perimeter=hexagonPerimeter2;whiteSpace=wrap;html=1;fixedSize=1;" parent="1" vertex="1">
          <mxGeometry x="800" y="480" width="160" height="40" as="geometry" />
        </mxCell>
        <mxCell id="m5B68YV7Llueld8YoMzW-56" value="1" style="text;html=1;strokeColor=none;fillColor=none;align=center;verticalAlign=middle;whiteSpace=wrap;rounded=0;" parent="1" vertex="1">
          <mxGeometry x="960" y="480" width="40" height="20" as="geometry" />
        </mxCell>
        <mxCell id="m5B68YV7Llueld8YoMzW-57" value="0" style="text;html=1;strokeColor=none;fillColor=none;align=center;verticalAlign=middle;whiteSpace=wrap;rounded=0;" parent="1" vertex="1">
          <mxGeometry x="840" y="530" width="40" height="20" as="geometry" />
        </mxCell>
        <mxCell id="m5B68YV7Llueld8YoMzW-59" value="ldMAR, mxMAR0, mxMAR1" style="rounded=0;whiteSpace=wrap;html=1;" parent="1" vertex="1">
          <mxGeometry x="800" y="560" width="160" height="40" as="geometry" />
        </mxCell>
        <mxCell id="m5B68YV7Llueld8YoMzW-60" style="edgeStyle=orthogonalEdgeStyle;rounded=0;orthogonalLoop=1;jettySize=auto;html=1;entryX=0.5;entryY=0;entryDx=0;entryDy=0;" parent="1" target="m5B68YV7Llueld8YoMzW-61" edge="1">
          <mxGeometry relative="1" as="geometry">
            <mxPoint x="880" y="600" as="sourcePoint" />
          </mxGeometry>
        </mxCell>
        <mxCell id="m5B68YV7Llueld8YoMzW-61" value="READ" style="rounded=0;whiteSpace=wrap;html=1;" parent="1" vertex="1">
          <mxGeometry x="860" y="620" width="40" height="20" as="geometry" />
        </mxCell>
        <mxCell id="m5B68YV7Llueld8YoMzW-64" style="edgeStyle=orthogonalEdgeStyle;rounded=0;orthogonalLoop=1;jettySize=auto;html=1;" parent="1" source="m5B68YV7Llueld8YoMzW-62" edge="1">
          <mxGeometry relative="1" as="geometry">
            <mxPoint x="1120" y="80" as="targetPoint" />
          </mxGeometry>
        </mxCell>
        <mxCell id="m5B68YV7Llueld8YoMzW-62" value="regind" style="rounded=0;whiteSpace=wrap;html=1;" parent="1" vertex="1">
          <mxGeometry x="1100" y="40" width="40" height="20" as="geometry" />
        </mxCell>
        <mxCell id="m5B68YV7Llueld8YoMzW-63" value="ldMAR, mxMAR2" style="rounded=0;whiteSpace=wrap;html=1;" parent="1" vertex="1">
          <mxGeometry x="1040" y="80" width="160" height="40" as="geometry" />
        </mxCell>
        <mxCell id="m5B68YV7Llueld8YoMzW-66" style="edgeStyle=orthogonalEdgeStyle;rounded=0;orthogonalLoop=1;jettySize=auto;html=1;entryX=0.5;entryY=0;entryDx=0;entryDy=0;" parent="1" target="m5B68YV7Llueld8YoMzW-67" edge="1">
          <mxGeometry relative="1" as="geometry">
            <mxPoint x="1120" y="120" as="sourcePoint" />
          </mxGeometry>
        </mxCell>
        <mxCell id="m5B68YV7Llueld8YoMzW-67" value="READ" style="rounded=0;whiteSpace=wrap;html=1;" parent="1" vertex="1">
          <mxGeometry x="1100" y="140" width="40" height="20" as="geometry" />
        </mxCell>
        <mxCell id="m5B68YV7Llueld8YoMzW-68" style="edgeStyle=orthogonalEdgeStyle;rounded=0;orthogonalLoop=1;jettySize=auto;html=1;" parent="1" source="m5B68YV7Llueld8YoMzW-69" edge="1">
          <mxGeometry relative="1" as="geometry">
            <mxPoint x="1320" y="80" as="targetPoint" />
          </mxGeometry>
        </mxCell>
        <mxCell id="m5B68YV7Llueld8YoMzW-69" value="postinc" style="rounded=0;whiteSpace=wrap;html=1;" parent="1" vertex="1">
          <mxGeometry x="1300" y="40" width="40" height="20" as="geometry" />
        </mxCell>
        <mxCell id="m5B68YV7Llueld8YoMzW-70" value="ldMAR, mxMAR2, wrGPR" style="rounded=0;whiteSpace=wrap;html=1;" parent="1" vertex="1">
          <mxGeometry x="1240" y="80" width="160" height="40" as="geometry" />
        </mxCell>
        <mxCell id="m5B68YV7Llueld8YoMzW-76" style="edgeStyle=orthogonalEdgeStyle;rounded=0;orthogonalLoop=1;jettySize=auto;html=1;entryX=0.5;entryY=0;entryDx=0;entryDy=0;" parent="1" target="m5B68YV7Llueld8YoMzW-77" edge="1">
          <mxGeometry relative="1" as="geometry">
            <mxPoint x="1320" y="120" as="sourcePoint" />
          </mxGeometry>
        </mxCell>
        <mxCell id="m5B68YV7Llueld8YoMzW-77" value="READ" style="rounded=0;whiteSpace=wrap;html=1;" parent="1" vertex="1">
          <mxGeometry x="1300" y="140" width="40" height="20" as="geometry" />
        </mxCell>
        <mxCell id="m5B68YV7Llueld8YoMzW-79" style="edgeStyle=orthogonalEdgeStyle;rounded=0;orthogonalLoop=1;jettySize=auto;html=1;" parent="1" source="m5B68YV7Llueld8YoMzW-80" edge="1">
          <mxGeometry relative="1" as="geometry">
            <mxPoint x="1520" y="80" as="targetPoint" />
          </mxGeometry>
        </mxCell>
        <mxCell id="m5B68YV7Llueld8YoMzW-80" value="postdec" style="rounded=0;whiteSpace=wrap;html=1;" parent="1" vertex="1">
          <mxGeometry x="1500" y="40" width="40" height="20" as="geometry" />
        </mxCell>
        <mxCell id="m5B68YV7Llueld8YoMzW-82" value="ldMAR, mxMAR2, wrGPR, mxGPRIN0" style="rounded=0;whiteSpace=wrap;html=1;" parent="1" vertex="1">
          <mxGeometry x="1440" y="80" width="160" height="40" as="geometry" />
        </mxCell>
        <mxCell id="m5B68YV7Llueld8YoMzW-84" style="edgeStyle=orthogonalEdgeStyle;rounded=0;orthogonalLoop=1;jettySize=auto;html=1;entryX=0.5;entryY=0;entryDx=0;entryDy=0;" parent="1" target="m5B68YV7Llueld8YoMzW-85" edge="1">
          <mxGeometry relative="1" as="geometry">
            <mxPoint x="1520" y="120" as="sourcePoint" />
          </mxGeometry>
        </mxCell>
        <mxCell id="m5B68YV7Llueld8YoMzW-85" value="READ" style="rounded=0;whiteSpace=wrap;html=1;" parent="1" vertex="1">
          <mxGeometry x="1500" y="140" width="40" height="20" as="geometry" />
        </mxCell>
        <mxCell id="m5B68YV7Llueld8YoMzW-88" style="edgeStyle=orthogonalEdgeStyle;rounded=0;orthogonalLoop=1;jettySize=auto;html=1;entryX=0.5;entryY=0;entryDx=0;entryDy=0;" parent="1" source="m5B68YV7Llueld8YoMzW-86" target="m5B68YV7Llueld8YoMzW-87" edge="1">
          <mxGeometry relative="1" as="geometry" />
        </mxCell>
        <mxCell id="m5B68YV7Llueld8YoMzW-86" value="READ" style="rounded=0;whiteSpace=wrap;html=1;" parent="1" vertex="1">
          <mxGeometry x="1700" y="40" width="40" height="20" as="geometry" />
        </mxCell>
        <mxCell id="m5B68YV7Llueld8YoMzW-87" value="" style="rounded=0;whiteSpace=wrap;html=1;" parent="1" vertex="1">
          <mxGeometry x="1640" y="80" width="160" height="40" as="geometry" />
        </mxCell>
        <mxCell id="m5B68YV7Llueld8YoMzW-90" style="edgeStyle=orthogonalEdgeStyle;rounded=0;orthogonalLoop=1;jettySize=auto;html=1;" parent="1" edge="1">
          <mxGeometry relative="1" as="geometry">
            <mxPoint x="1720" y="160" as="targetPoint" />
            <mxPoint x="1720" y="120" as="sourcePoint" />
          </mxGeometry>
        </mxCell>
        <mxCell id="m5B68YV7Llueld8YoMzW-91" style="edgeStyle=orthogonalEdgeStyle;rounded=0;orthogonalLoop=1;jettySize=auto;html=1;" parent="1" source="m5B68YV7Llueld8YoMzW-93" edge="1">
          <mxGeometry relative="1" as="geometry">
            <mxPoint x="1840" y="180" as="targetPoint" />
          </mxGeometry>
        </mxCell>
        <mxCell id="m5B68YV7Llueld8YoMzW-92" style="edgeStyle=orthogonalEdgeStyle;rounded=0;orthogonalLoop=1;jettySize=auto;html=1;" parent="1" source="m5B68YV7Llueld8YoMzW-93" edge="1">
          <mxGeometry relative="1" as="geometry">
            <mxPoint x="1720" y="240" as="targetPoint" />
          </mxGeometry>
        </mxCell>
        <mxCell id="m5B68YV7Llueld8YoMzW-93" value="ST" style="shape=hexagon;perimeter=hexagonPerimeter2;whiteSpace=wrap;html=1;fixedSize=1;" parent="1" vertex="1">
          <mxGeometry x="1640" y="160" width="160" height="40" as="geometry" />
        </mxCell>
        <mxCell id="m5B68YV7Llueld8YoMzW-94" value="EXEC" style="rounded=0;whiteSpace=wrap;html=1;" parent="1" vertex="1">
          <mxGeometry x="1840" y="170" width="40" height="20" as="geometry" />
        </mxCell>
        <mxCell id="m5B68YV7Llueld8YoMzW-95" value="0" style="text;html=1;strokeColor=none;fillColor=none;align=center;verticalAlign=middle;whiteSpace=wrap;rounded=0;" parent="1" vertex="1">
          <mxGeometry x="1680" y="210" width="40" height="20" as="geometry" />
        </mxCell>
        <mxCell id="m5B68YV7Llueld8YoMzW-97" style="edgeStyle=orthogonalEdgeStyle;rounded=0;orthogonalLoop=1;jettySize=auto;html=1;entryX=0.5;entryY=0;entryDx=0;entryDy=0;" parent="1" source="m5B68YV7Llueld8YoMzW-98" target="m5B68YV7Llueld8YoMzW-101" edge="1">
          <mxGeometry relative="1" as="geometry" />
        </mxCell>
        <mxCell id="m5B68YV7Llueld8YoMzW-98" value="rdMEM, ldMDR" style="rounded=0;whiteSpace=wrap;html=1;" parent="1" vertex="1">
          <mxGeometry x="1640" y="240" width="160" height="40" as="geometry" />
        </mxCell>
        <mxCell id="m5B68YV7Llueld8YoMzW-99" style="edgeStyle=orthogonalEdgeStyle;rounded=0;orthogonalLoop=1;jettySize=auto;html=1;entryX=1;entryY=0.5;entryDx=0;entryDy=0;" parent="1" source="m5B68YV7Llueld8YoMzW-101" target="m5B68YV7Llueld8YoMzW-98" edge="1">
          <mxGeometry relative="1" as="geometry">
            <mxPoint x="1840" y="260" as="targetPoint" />
            <Array as="points">
              <mxPoint x="1840" y="340" />
              <mxPoint x="1840" y="260" />
            </Array>
          </mxGeometry>
        </mxCell>
        <mxCell id="m5B68YV7Llueld8YoMzW-100" style="edgeStyle=orthogonalEdgeStyle;rounded=0;orthogonalLoop=1;jettySize=auto;html=1;" parent="1" source="m5B68YV7Llueld8YoMzW-101" edge="1">
          <mxGeometry relative="1" as="geometry">
            <mxPoint x="1720" y="400" as="targetPoint" />
          </mxGeometry>
        </mxCell>
        <mxCell id="m5B68YV7Llueld8YoMzW-101" value="notFCBUS" style="shape=hexagon;perimeter=hexagonPerimeter2;whiteSpace=wrap;html=1;fixedSize=1;" parent="1" vertex="1">
          <mxGeometry x="1640" y="320" width="160" height="40" as="geometry" />
        </mxCell>
        <mxCell id="m5B68YV7Llueld8YoMzW-102" value="1" style="text;html=1;strokeColor=none;fillColor=none;align=center;verticalAlign=middle;whiteSpace=wrap;rounded=0;" parent="1" vertex="1">
          <mxGeometry x="1800" y="320" width="40" height="20" as="geometry" />
        </mxCell>
        <mxCell id="m5B68YV7Llueld8YoMzW-103" value="0" style="text;html=1;strokeColor=none;fillColor=none;align=center;verticalAlign=middle;whiteSpace=wrap;rounded=0;" parent="1" vertex="1">
          <mxGeometry x="1680" y="370" width="40" height="20" as="geometry" />
        </mxCell>
        <mxCell id="m5B68YV7Llueld8YoMzW-104" style="edgeStyle=orthogonalEdgeStyle;rounded=0;orthogonalLoop=1;jettySize=auto;html=1;entryX=0.5;entryY=0;entryDx=0;entryDy=0;" parent="1" source="m5B68YV7Llueld8YoMzW-105" target="m5B68YV7Llueld8YoMzW-108" edge="1">
          <mxGeometry relative="1" as="geometry" />
        </mxCell>
        <mxCell id="m5B68YV7Llueld8YoMzW-105" value="rdMEM, ldMDR" style="rounded=0;whiteSpace=wrap;html=1;" parent="1" vertex="1">
          <mxGeometry x="1640" y="480" width="160" height="40" as="geometry" />
        </mxCell>
        <mxCell id="m5B68YV7Llueld8YoMzW-106" style="edgeStyle=orthogonalEdgeStyle;rounded=0;orthogonalLoop=1;jettySize=auto;html=1;entryX=1;entryY=0.5;entryDx=0;entryDy=0;" parent="1" source="m5B68YV7Llueld8YoMzW-108" target="m5B68YV7Llueld8YoMzW-105" edge="1">
          <mxGeometry relative="1" as="geometry">
            <mxPoint x="1840" y="500" as="targetPoint" />
            <Array as="points">
              <mxPoint x="1840" y="580" />
              <mxPoint x="1840" y="500" />
            </Array>
          </mxGeometry>
        </mxCell>
        <mxCell id="m5B68YV7Llueld8YoMzW-107" style="edgeStyle=orthogonalEdgeStyle;rounded=0;orthogonalLoop=1;jettySize=auto;html=1;" parent="1" source="m5B68YV7Llueld8YoMzW-108" edge="1">
          <mxGeometry relative="1" as="geometry">
            <mxPoint x="1720" y="640" as="targetPoint" />
          </mxGeometry>
        </mxCell>
        <mxCell id="m5B68YV7Llueld8YoMzW-108" value="notFCBUS" style="shape=hexagon;perimeter=hexagonPerimeter2;whiteSpace=wrap;html=1;fixedSize=1;" parent="1" vertex="1">
          <mxGeometry x="1640" y="560" width="160" height="40" as="geometry" />
        </mxCell>
        <mxCell id="m5B68YV7Llueld8YoMzW-109" value="1" style="text;html=1;strokeColor=none;fillColor=none;align=center;verticalAlign=middle;whiteSpace=wrap;rounded=0;" parent="1" vertex="1">
          <mxGeometry x="1800" y="560" width="40" height="20" as="geometry" />
        </mxCell>
        <mxCell id="m5B68YV7Llueld8YoMzW-110" value="0" style="text;html=1;strokeColor=none;fillColor=none;align=center;verticalAlign=middle;whiteSpace=wrap;rounded=0;" parent="1" vertex="1">
          <mxGeometry x="1680" y="610" width="40" height="20" as="geometry" />
        </mxCell>
        <mxCell id="m5B68YV7Llueld8YoMzW-112" style="edgeStyle=orthogonalEdgeStyle;rounded=0;orthogonalLoop=1;jettySize=auto;html=1;entryX=0.5;entryY=0;entryDx=0;entryDy=0;" parent="1" source="m5B68YV7Llueld8YoMzW-111" target="m5B68YV7Llueld8YoMzW-105" edge="1">
          <mxGeometry relative="1" as="geometry" />
        </mxCell>
        <mxCell id="m5B68YV7Llueld8YoMzW-111" value="ldB, mxB0" style="rounded=0;whiteSpace=wrap;html=1;" parent="1" vertex="1">
          <mxGeometry x="1640" y="400" width="160" height="40" as="geometry" />
        </mxCell>
        <mxCell id="m5B68YV7Llueld8YoMzW-113" value="ldB, mxB1" style="rounded=0;whiteSpace=wrap;html=1;" parent="1" vertex="1">
          <mxGeometry x="1640" y="640" width="160" height="40" as="geometry" />
        </mxCell>
        <mxCell id="m5B68YV7Llueld8YoMzW-114" style="edgeStyle=orthogonalEdgeStyle;rounded=0;orthogonalLoop=1;jettySize=auto;html=1;" parent="1" edge="1">
          <mxGeometry relative="1" as="geometry">
            <mxPoint x="1720" y="700" as="targetPoint" />
            <mxPoint x="1720" y="680" as="sourcePoint" />
          </mxGeometry>
        </mxCell>
        <mxCell id="m5B68YV7Llueld8YoMzW-115" value="EXEC" style="rounded=0;whiteSpace=wrap;html=1;" parent="1" vertex="1">
          <mxGeometry x="1700" y="700" width="40" height="20" as="geometry" />
        </mxCell>
        <mxCell id="DQxKHU4NZb87uEPZaep3-5" style="edgeStyle=orthogonalEdgeStyle;rounded=0;orthogonalLoop=1;jettySize=auto;html=1;entryX=0.5;entryY=0;entryDx=0;entryDy=0;" parent="1" source="DQxKHU4NZb87uEPZaep3-2" target="DQxKHU4NZb87uEPZaep3-3" edge="1">
          <mxGeometry relative="1" as="geometry" />
        </mxCell>
        <mxCell id="DQxKHU4NZb87uEPZaep3-2" value="EXEC" style="rounded=0;whiteSpace=wrap;html=1;" parent="1" vertex="1">
          <mxGeometry x="2260" y="40" width="40" height="20" as="geometry" />
        </mxCell>
        <mxCell id="DQxKHU4NZb87uEPZaep3-7" style="edgeStyle=orthogonalEdgeStyle;rounded=0;orthogonalLoop=1;jettySize=auto;html=1;entryX=0.5;entryY=0;entryDx=0;entryDy=0;" parent="1" source="DQxKHU4NZb87uEPZaep3-3" target="DQxKHU4NZb87uEPZaep3-6" edge="1">
          <mxGeometry relative="1" as="geometry" />
        </mxCell>
        <mxCell id="DQxKHU4NZb87uEPZaep3-3" value="clADDR, stEXEC" style="rounded=0;whiteSpace=wrap;html=1;" parent="1" vertex="1">
          <mxGeometry x="2200" y="80" width="160" height="40" as="geometry" />
        </mxCell>
        <mxCell id="DQxKHU4NZb87uEPZaep3-6" value="ADDR" style="rounded=0;whiteSpace=wrap;html=1;" parent="1" vertex="1">
          <mxGeometry x="2260" y="140" width="40" height="20" as="geometry" />
        </mxCell>
        <mxCell id="DQxKHU4NZb87uEPZaep3-10" style="edgeStyle=orthogonalEdgeStyle;rounded=0;orthogonalLoop=1;jettySize=auto;html=1;entryX=0.5;entryY=0;entryDx=0;entryDy=0;" parent="1" source="DQxKHU4NZb87uEPZaep3-8" target="DQxKHU4NZb87uEPZaep3-9" edge="1">
          <mxGeometry relative="1" as="geometry" />
        </mxCell>
        <mxCell id="DQxKHU4NZb87uEPZaep3-8" value="regdir" style="rounded=0;whiteSpace=wrap;html=1;" parent="1" vertex="1">
          <mxGeometry x="1980" y="40" width="40" height="20" as="geometry" />
        </mxCell>
        <mxCell id="DQxKHU4NZb87uEPZaep3-16" style="edgeStyle=orthogonalEdgeStyle;rounded=0;orthogonalLoop=1;jettySize=auto;html=1;entryX=0.5;entryY=0;entryDx=0;entryDy=0;" parent="1" source="DQxKHU4NZb87uEPZaep3-9" target="DQxKHU4NZb87uEPZaep3-13" edge="1">
          <mxGeometry relative="1" as="geometry" />
        </mxCell>
        <mxCell id="DQxKHU4NZb87uEPZaep3-9" value="" style="rounded=0;whiteSpace=wrap;html=1;" parent="1" vertex="1">
          <mxGeometry x="1920" y="80" width="160" height="40" as="geometry" />
        </mxCell>
        <mxCell id="DQxKHU4NZb87uEPZaep3-11" style="edgeStyle=orthogonalEdgeStyle;rounded=0;orthogonalLoop=1;jettySize=auto;html=1;" parent="1" source="DQxKHU4NZb87uEPZaep3-13" edge="1">
          <mxGeometry relative="1" as="geometry">
            <mxPoint x="2120" y="180" as="targetPoint" />
          </mxGeometry>
        </mxCell>
        <mxCell id="DQxKHU4NZb87uEPZaep3-12" style="edgeStyle=orthogonalEdgeStyle;rounded=0;orthogonalLoop=1;jettySize=auto;html=1;" parent="1" source="DQxKHU4NZb87uEPZaep3-13" edge="1">
          <mxGeometry relative="1" as="geometry">
            <mxPoint x="2000" y="240" as="targetPoint" />
          </mxGeometry>
        </mxCell>
        <mxCell id="DQxKHU4NZb87uEPZaep3-13" value="ST" style="shape=hexagon;perimeter=hexagonPerimeter2;whiteSpace=wrap;html=1;fixedSize=1;" parent="1" vertex="1">
          <mxGeometry x="1920" y="160" width="160" height="40" as="geometry" />
        </mxCell>
        <mxCell id="DQxKHU4NZb87uEPZaep3-14" value="EXEC" style="rounded=0;whiteSpace=wrap;html=1;" parent="1" vertex="1">
          <mxGeometry x="2120" y="170" width="40" height="20" as="geometry" />
        </mxCell>
        <mxCell id="DQxKHU4NZb87uEPZaep3-15" value="0" style="text;html=1;strokeColor=none;fillColor=none;align=center;verticalAlign=middle;whiteSpace=wrap;rounded=0;" parent="1" vertex="1">
          <mxGeometry x="1960" y="210" width="40" height="20" as="geometry" />
        </mxCell>
        <mxCell id="DQxKHU4NZb87uEPZaep3-17" value="1" style="text;html=1;strokeColor=none;fillColor=none;align=center;verticalAlign=middle;whiteSpace=wrap;rounded=0;" parent="1" vertex="1">
          <mxGeometry x="1800" y="160" width="40" height="20" as="geometry" />
        </mxCell>
        <mxCell id="DQxKHU4NZb87uEPZaep3-18" value="1" style="text;html=1;strokeColor=none;fillColor=none;align=center;verticalAlign=middle;whiteSpace=wrap;rounded=0;" parent="1" vertex="1">
          <mxGeometry x="2080" y="160" width="40" height="20" as="geometry" />
        </mxCell>
        <mxCell id="DQxKHU4NZb87uEPZaep3-19" value="ldB, mxB0, mxB1" style="rounded=0;whiteSpace=wrap;html=1;" parent="1" vertex="1">
          <mxGeometry x="1920" y="240" width="160" height="40" as="geometry" />
        </mxCell>
        <mxCell id="DQxKHU4NZb87uEPZaep3-20" style="edgeStyle=orthogonalEdgeStyle;rounded=0;orthogonalLoop=1;jettySize=auto;html=1;" parent="1" edge="1">
          <mxGeometry relative="1" as="geometry">
            <mxPoint x="2000" y="300" as="targetPoint" />
            <mxPoint x="2000" y="280" as="sourcePoint" />
          </mxGeometry>
        </mxCell>
        <mxCell id="DQxKHU4NZb87uEPZaep3-21" value="EXEC" style="rounded=0;whiteSpace=wrap;html=1;" parent="1" vertex="1">
          <mxGeometry x="1980" y="300" width="40" height="20" as="geometry" />
        </mxCell>
      </root>
    </mxGraphModel>
  </diagram>
  <diagram id="sP9exGy8-skeZBWcZYt0" name="EXEC">
    <mxGraphModel dx="1391" dy="862" grid="1" gridSize="10" guides="1" tooltips="1" connect="1" arrows="1" fold="1" page="1" pageScale="1" pageWidth="827" pageHeight="1169" math="0" shadow="0">
      <root>
        <mxCell id="-UUE_6B860I99XmVfhRC-0" />
        <mxCell id="-UUE_6B860I99XmVfhRC-1" parent="-UUE_6B860I99XmVfhRC-0" />
        <mxCell id="9w63qVAaYQMPP7UK1Jj4-0" style="edgeStyle=orthogonalEdgeStyle;rounded=0;orthogonalLoop=1;jettySize=auto;html=1;entryX=0.5;entryY=0;entryDx=0;entryDy=0;" parent="-UUE_6B860I99XmVfhRC-1" source="9w63qVAaYQMPP7UK1Jj4-1" target="9w63qVAaYQMPP7UK1Jj4-3" edge="1">
          <mxGeometry relative="1" as="geometry" />
        </mxCell>
        <mxCell id="9w63qVAaYQMPP7UK1Jj4-1" value="EXEC" style="rounded=0;whiteSpace=wrap;html=1;" parent="-UUE_6B860I99XmVfhRC-1" vertex="1">
          <mxGeometry x="100" y="40" width="40" height="20" as="geometry" />
        </mxCell>
        <mxCell id="9w63qVAaYQMPP7UK1Jj4-2" style="edgeStyle=orthogonalEdgeStyle;rounded=0;orthogonalLoop=1;jettySize=auto;html=1;entryX=0.5;entryY=0;entryDx=0;entryDy=0;" parent="-UUE_6B860I99XmVfhRC-1" source="9w63qVAaYQMPP7UK1Jj4-3" target="9w63qVAaYQMPP7UK1Jj4-6" edge="1">
          <mxGeometry relative="1" as="geometry" />
        </mxCell>
        <mxCell id="9w63qVAaYQMPP7UK1Jj4-3" value="" style="rounded=0;whiteSpace=wrap;html=1;" parent="-UUE_6B860I99XmVfhRC-1" vertex="1">
          <mxGeometry x="40" y="80" width="160" height="40" as="geometry" />
        </mxCell>
        <mxCell id="9w63qVAaYQMPP7UK1Jj4-4" style="edgeStyle=orthogonalEdgeStyle;rounded=0;orthogonalLoop=1;jettySize=auto;html=1;entryX=1;entryY=0.5;entryDx=0;entryDy=0;" parent="-UUE_6B860I99XmVfhRC-1" source="9w63qVAaYQMPP7UK1Jj4-6" target="9w63qVAaYQMPP7UK1Jj4-3" edge="1">
          <mxGeometry relative="1" as="geometry">
            <mxPoint x="240" y="100" as="targetPoint" />
            <Array as="points">
              <mxPoint x="240" y="180" />
              <mxPoint x="240" y="100" />
            </Array>
          </mxGeometry>
        </mxCell>
        <mxCell id="9w63qVAaYQMPP7UK1Jj4-5" style="edgeStyle=orthogonalEdgeStyle;rounded=0;orthogonalLoop=1;jettySize=auto;html=1;entryX=0.5;entryY=0;entryDx=0;entryDy=0;" parent="-UUE_6B860I99XmVfhRC-1" source="9w63qVAaYQMPP7UK1Jj4-6" target="9w63qVAaYQMPP7UK1Jj4-8" edge="1">
          <mxGeometry relative="1" as="geometry" />
        </mxCell>
        <mxCell id="9w63qVAaYQMPP7UK1Jj4-6" value="notEXEC" style="shape=hexagon;perimeter=hexagonPerimeter2;whiteSpace=wrap;html=1;fixedSize=1;" parent="-UUE_6B860I99XmVfhRC-1" vertex="1">
          <mxGeometry x="40" y="160" width="160" height="40" as="geometry" />
        </mxCell>
        <mxCell id="9w63qVAaYQMPP7UK1Jj4-7" style="edgeStyle=orthogonalEdgeStyle;rounded=0;orthogonalLoop=1;jettySize=auto;html=1;entryX=0.5;entryY=0;entryDx=0;entryDy=0;" parent="-UUE_6B860I99XmVfhRC-1" source="9w63qVAaYQMPP7UK1Jj4-8" target="9w63qVAaYQMPP7UK1Jj4-12" edge="1">
          <mxGeometry relative="1" as="geometry" />
        </mxCell>
        <mxCell id="9w63qVAaYQMPP7UK1Jj4-8" value="" style="rounded=0;whiteSpace=wrap;html=1;" parent="-UUE_6B860I99XmVfhRC-1" vertex="1">
          <mxGeometry x="40" y="240" width="160" height="40" as="geometry" />
        </mxCell>
        <mxCell id="9w63qVAaYQMPP7UK1Jj4-9" value="0" style="text;html=1;strokeColor=none;fillColor=none;align=center;verticalAlign=middle;whiteSpace=wrap;rounded=0;" parent="-UUE_6B860I99XmVfhRC-1" vertex="1">
          <mxGeometry x="80" y="210" width="40" height="20" as="geometry" />
        </mxCell>
        <mxCell id="9w63qVAaYQMPP7UK1Jj4-10" value="1" style="text;html=1;strokeColor=none;fillColor=none;align=center;verticalAlign=middle;whiteSpace=wrap;rounded=0;" parent="-UUE_6B860I99XmVfhRC-1" vertex="1">
          <mxGeometry x="200" y="160" width="40" height="20" as="geometry" />
        </mxCell>
        <mxCell id="9w63qVAaYQMPP7UK1Jj4-11" style="edgeStyle=orthogonalEdgeStyle;rounded=0;orthogonalLoop=1;jettySize=auto;html=1;entryX=0.5;entryY=0;entryDx=0;entryDy=0;" parent="-UUE_6B860I99XmVfhRC-1" target="9w63qVAaYQMPP7UK1Jj4-13" edge="1">
          <mxGeometry relative="1" as="geometry">
            <mxPoint x="120" y="360" as="sourcePoint" />
          </mxGeometry>
        </mxCell>
        <mxCell id="9w63qVAaYQMPP7UK1Jj4-12" value="&lt;div&gt;case(HALT, RTS, RTI, ROTR, ROTRC, PUSH, POP, BLEQ, BGREU, BNNG, BGRT, JLEQ, JMP, JSR, LD, ST, ADD, INC, OR, STRFIND)&lt;/div&gt;" style="shape=hexagon;perimeter=hexagonPerimeter2;whiteSpace=wrap;html=1;fixedSize=1;size=20;" parent="-UUE_6B860I99XmVfhRC-1" vertex="1">
          <mxGeometry x="40" y="320" width="160" height="120" as="geometry" />
        </mxCell>
        <mxCell id="9w63qVAaYQMPP7UK1Jj4-13" value="..." style="rounded=0;whiteSpace=wrap;html=1;" parent="-UUE_6B860I99XmVfhRC-1" vertex="1">
          <mxGeometry x="100" y="460" width="40" height="20" as="geometry" />
        </mxCell>
        <mxCell id="FHpEhkKL6YUrtx53bkjI-0" style="edgeStyle=orthogonalEdgeStyle;rounded=0;orthogonalLoop=1;jettySize=auto;html=1;entryX=0.5;entryY=0;entryDx=0;entryDy=0;" parent="-UUE_6B860I99XmVfhRC-1" source="FHpEhkKL6YUrtx53bkjI-1" target="FHpEhkKL6YUrtx53bkjI-3" edge="1">
          <mxGeometry relative="1" as="geometry" />
        </mxCell>
        <mxCell id="FHpEhkKL6YUrtx53bkjI-1" value="HALT" style="rounded=0;whiteSpace=wrap;html=1;" parent="-UUE_6B860I99XmVfhRC-1" vertex="1">
          <mxGeometry x="380" y="40" width="40" height="20" as="geometry" />
        </mxCell>
        <mxCell id="FHpEhkKL6YUrtx53bkjI-3" value="clPSWSTART" style="rounded=0;whiteSpace=wrap;html=1;" parent="-UUE_6B860I99XmVfhRC-1" vertex="1">
          <mxGeometry x="320" y="80" width="160" height="40" as="geometry" />
        </mxCell>
        <mxCell id="FHpEhkKL6YUrtx53bkjI-9" style="edgeStyle=orthogonalEdgeStyle;rounded=0;orthogonalLoop=1;jettySize=auto;html=1;" parent="-UUE_6B860I99XmVfhRC-1" edge="1">
          <mxGeometry relative="1" as="geometry">
            <mxPoint x="400" y="140" as="targetPoint" />
            <mxPoint x="400" y="119.99999999999989" as="sourcePoint" />
          </mxGeometry>
        </mxCell>
        <mxCell id="FHpEhkKL6YUrtx53bkjI-11" value="INTR" style="rounded=0;whiteSpace=wrap;html=1;" parent="-UUE_6B860I99XmVfhRC-1" vertex="1">
          <mxGeometry x="380" y="140" width="40" height="20" as="geometry" />
        </mxCell>
        <mxCell id="FHpEhkKL6YUrtx53bkjI-12" style="edgeStyle=orthogonalEdgeStyle;rounded=0;orthogonalLoop=1;jettySize=auto;html=1;entryX=0.5;entryY=0;entryDx=0;entryDy=0;" parent="-UUE_6B860I99XmVfhRC-1" source="FHpEhkKL6YUrtx53bkjI-13" target="FHpEhkKL6YUrtx53bkjI-14" edge="1">
          <mxGeometry relative="1" as="geometry" />
        </mxCell>
        <mxCell id="FHpEhkKL6YUrtx53bkjI-13" value="RTS" style="rounded=0;whiteSpace=wrap;html=1;" parent="-UUE_6B860I99XmVfhRC-1" vertex="1">
          <mxGeometry x="620" y="40" width="40" height="20" as="geometry" />
        </mxCell>
        <mxCell id="FHpEhkKL6YUrtx53bkjI-14" value="" style="rounded=0;whiteSpace=wrap;html=1;" parent="-UUE_6B860I99XmVfhRC-1" vertex="1">
          <mxGeometry x="560" y="80" width="160" height="40" as="geometry" />
        </mxCell>
        <mxCell id="FHpEhkKL6YUrtx53bkjI-15" style="edgeStyle=orthogonalEdgeStyle;rounded=0;orthogonalLoop=1;jettySize=auto;html=1;" parent="-UUE_6B860I99XmVfhRC-1" edge="1">
          <mxGeometry relative="1" as="geometry">
            <mxPoint x="640" y="140" as="targetPoint" />
            <mxPoint x="640" y="119.99999999999989" as="sourcePoint" />
          </mxGeometry>
        </mxCell>
        <mxCell id="FHpEhkKL6YUrtx53bkjI-16" value="INTR" style="rounded=0;whiteSpace=wrap;html=1;" parent="-UUE_6B860I99XmVfhRC-1" vertex="1">
          <mxGeometry x="620" y="140" width="40" height="20" as="geometry" />
        </mxCell>
        <mxCell id="FHpEhkKL6YUrtx53bkjI-18" style="edgeStyle=orthogonalEdgeStyle;rounded=0;orthogonalLoop=1;jettySize=auto;html=1;entryX=0.5;entryY=0;entryDx=0;entryDy=0;" parent="-UUE_6B860I99XmVfhRC-1" source="FHpEhkKL6YUrtx53bkjI-19" target="FHpEhkKL6YUrtx53bkjI-20" edge="1">
          <mxGeometry relative="1" as="geometry" />
        </mxCell>
        <mxCell id="FHpEhkKL6YUrtx53bkjI-19" value="RTI" style="rounded=0;whiteSpace=wrap;html=1;" parent="-UUE_6B860I99XmVfhRC-1" vertex="1">
          <mxGeometry x="860" y="40" width="40" height="20" as="geometry" />
        </mxCell>
        <mxCell id="FHpEhkKL6YUrtx53bkjI-20" value="" style="rounded=0;whiteSpace=wrap;html=1;" parent="-UUE_6B860I99XmVfhRC-1" vertex="1">
          <mxGeometry x="800" y="80" width="160" height="40" as="geometry" />
        </mxCell>
        <mxCell id="FHpEhkKL6YUrtx53bkjI-21" style="edgeStyle=orthogonalEdgeStyle;rounded=0;orthogonalLoop=1;jettySize=auto;html=1;" parent="-UUE_6B860I99XmVfhRC-1" edge="1">
          <mxGeometry relative="1" as="geometry">
            <mxPoint x="880" y="140" as="targetPoint" />
            <mxPoint x="880" y="119.99999999999989" as="sourcePoint" />
          </mxGeometry>
        </mxCell>
        <mxCell id="FHpEhkKL6YUrtx53bkjI-22" value="INTR" style="rounded=0;whiteSpace=wrap;html=1;" parent="-UUE_6B860I99XmVfhRC-1" vertex="1">
          <mxGeometry x="860" y="140" width="40" height="20" as="geometry" />
        </mxCell>
        <mxCell id="FHpEhkKL6YUrtx53bkjI-23" style="edgeStyle=orthogonalEdgeStyle;rounded=0;orthogonalLoop=1;jettySize=auto;html=1;entryX=0.5;entryY=0;entryDx=0;entryDy=0;" parent="-UUE_6B860I99XmVfhRC-1" source="FHpEhkKL6YUrtx53bkjI-24" target="FHpEhkKL6YUrtx53bkjI-25" edge="1">
          <mxGeometry relative="1" as="geometry" />
        </mxCell>
        <mxCell id="FHpEhkKL6YUrtx53bkjI-24" value="ROTR" style="rounded=0;whiteSpace=wrap;html=1;" parent="-UUE_6B860I99XmVfhRC-1" vertex="1">
          <mxGeometry x="1100" y="40" width="40" height="20" as="geometry" />
        </mxCell>
        <mxCell id="FHpEhkKL6YUrtx53bkjI-25" value="" style="rounded=0;whiteSpace=wrap;html=1;" parent="-UUE_6B860I99XmVfhRC-1" vertex="1">
          <mxGeometry x="1040" y="80" width="160" height="40" as="geometry" />
        </mxCell>
        <mxCell id="FHpEhkKL6YUrtx53bkjI-26" style="edgeStyle=orthogonalEdgeStyle;rounded=0;orthogonalLoop=1;jettySize=auto;html=1;" parent="-UUE_6B860I99XmVfhRC-1" edge="1">
          <mxGeometry relative="1" as="geometry">
            <mxPoint x="1120" y="140" as="targetPoint" />
            <mxPoint x="1120" y="119.99999999999989" as="sourcePoint" />
          </mxGeometry>
        </mxCell>
        <mxCell id="FHpEhkKL6YUrtx53bkjI-27" value="INTR" style="rounded=0;whiteSpace=wrap;html=1;" parent="-UUE_6B860I99XmVfhRC-1" vertex="1">
          <mxGeometry x="1100" y="140" width="40" height="20" as="geometry" />
        </mxCell>
        <mxCell id="FHpEhkKL6YUrtx53bkjI-28" style="edgeStyle=orthogonalEdgeStyle;rounded=0;orthogonalLoop=1;jettySize=auto;html=1;entryX=0.5;entryY=0;entryDx=0;entryDy=0;" parent="-UUE_6B860I99XmVfhRC-1" source="FHpEhkKL6YUrtx53bkjI-29" target="FHpEhkKL6YUrtx53bkjI-30" edge="1">
          <mxGeometry relative="1" as="geometry" />
        </mxCell>
        <mxCell id="FHpEhkKL6YUrtx53bkjI-29" value="&lt;div&gt;ROTRC&lt;/div&gt;" style="rounded=0;whiteSpace=wrap;html=1;" parent="-UUE_6B860I99XmVfhRC-1" vertex="1">
          <mxGeometry x="1330" y="40" width="60" height="20" as="geometry" />
        </mxCell>
        <mxCell id="FHpEhkKL6YUrtx53bkjI-30" value="" style="rounded=0;whiteSpace=wrap;html=1;" parent="-UUE_6B860I99XmVfhRC-1" vertex="1">
          <mxGeometry x="1280" y="80" width="160" height="40" as="geometry" />
        </mxCell>
        <mxCell id="FHpEhkKL6YUrtx53bkjI-31" style="edgeStyle=orthogonalEdgeStyle;rounded=0;orthogonalLoop=1;jettySize=auto;html=1;" parent="-UUE_6B860I99XmVfhRC-1" edge="1">
          <mxGeometry relative="1" as="geometry">
            <mxPoint x="1360" y="140" as="targetPoint" />
            <mxPoint x="1360" y="119.99999999999989" as="sourcePoint" />
          </mxGeometry>
        </mxCell>
        <mxCell id="FHpEhkKL6YUrtx53bkjI-32" value="INTR" style="rounded=0;whiteSpace=wrap;html=1;" parent="-UUE_6B860I99XmVfhRC-1" vertex="1">
          <mxGeometry x="1340" y="140" width="40" height="20" as="geometry" />
        </mxCell>
        <mxCell id="FHpEhkKL6YUrtx53bkjI-33" style="edgeStyle=orthogonalEdgeStyle;rounded=0;orthogonalLoop=1;jettySize=auto;html=1;entryX=0.5;entryY=0;entryDx=0;entryDy=0;" parent="-UUE_6B860I99XmVfhRC-1" source="FHpEhkKL6YUrtx53bkjI-34" target="FHpEhkKL6YUrtx53bkjI-35" edge="1">
          <mxGeometry relative="1" as="geometry" />
        </mxCell>
        <mxCell id="FHpEhkKL6YUrtx53bkjI-34" value="&lt;div&gt;ROTRC&lt;/div&gt;" style="rounded=0;whiteSpace=wrap;html=1;" parent="-UUE_6B860I99XmVfhRC-1" vertex="1">
          <mxGeometry x="1330" y="40" width="60" height="20" as="geometry" />
        </mxCell>
        <mxCell id="FHpEhkKL6YUrtx53bkjI-35" value="" style="rounded=0;whiteSpace=wrap;html=1;" parent="-UUE_6B860I99XmVfhRC-1" vertex="1">
          <mxGeometry x="1280" y="80" width="160" height="40" as="geometry" />
        </mxCell>
        <mxCell id="FHpEhkKL6YUrtx53bkjI-36" style="edgeStyle=orthogonalEdgeStyle;rounded=0;orthogonalLoop=1;jettySize=auto;html=1;" parent="-UUE_6B860I99XmVfhRC-1" edge="1">
          <mxGeometry relative="1" as="geometry">
            <mxPoint x="1360" y="140" as="targetPoint" />
            <mxPoint x="1360" y="119.99999999999989" as="sourcePoint" />
          </mxGeometry>
        </mxCell>
        <mxCell id="FHpEhkKL6YUrtx53bkjI-37" value="INTR" style="rounded=0;whiteSpace=wrap;html=1;" parent="-UUE_6B860I99XmVfhRC-1" vertex="1">
          <mxGeometry x="1340" y="140" width="40" height="20" as="geometry" />
        </mxCell>
        <mxCell id="FHpEhkKL6YUrtx53bkjI-38" style="edgeStyle=orthogonalEdgeStyle;rounded=0;orthogonalLoop=1;jettySize=auto;html=1;entryX=0.5;entryY=0;entryDx=0;entryDy=0;" parent="-UUE_6B860I99XmVfhRC-1" source="FHpEhkKL6YUrtx53bkjI-39" target="FHpEhkKL6YUrtx53bkjI-40" edge="1">
          <mxGeometry relative="1" as="geometry" />
        </mxCell>
        <mxCell id="FHpEhkKL6YUrtx53bkjI-39" value="PUSH" style="rounded=0;whiteSpace=wrap;html=1;" parent="-UUE_6B860I99XmVfhRC-1" vertex="1">
          <mxGeometry x="1580" y="40" width="40" height="20" as="geometry" />
        </mxCell>
        <mxCell id="FHpEhkKL6YUrtx53bkjI-40" value="&lt;div&gt;&lt;i&gt;MAR&amp;lt;=SP, decSP&lt;br&gt;&lt;/i&gt;&lt;/div&gt;&lt;div&gt;ldMAR, mxMAR0, mxMAR2, decSP&lt;br&gt;&lt;/div&gt;" style="rounded=0;whiteSpace=wrap;html=1;" parent="-UUE_6B860I99XmVfhRC-1" vertex="1">
          <mxGeometry x="1520" y="80" width="160" height="60" as="geometry" />
        </mxCell>
        <mxCell id="FHpEhkKL6YUrtx53bkjI-43" style="edgeStyle=orthogonalEdgeStyle;rounded=0;orthogonalLoop=1;jettySize=auto;html=1;entryX=0.5;entryY=0;entryDx=0;entryDy=0;" parent="-UUE_6B860I99XmVfhRC-1" source="FHpEhkKL6YUrtx53bkjI-44" target="FHpEhkKL6YUrtx53bkjI-45" edge="1">
          <mxGeometry relative="1" as="geometry" />
        </mxCell>
        <mxCell id="FHpEhkKL6YUrtx53bkjI-44" value="POP" style="rounded=0;whiteSpace=wrap;html=1;" parent="-UUE_6B860I99XmVfhRC-1" vertex="1">
          <mxGeometry x="1820" y="40" width="40" height="20" as="geometry" />
        </mxCell>
        <mxCell id="FHpEhkKL6YUrtx53bkjI-45" value="incSP" style="rounded=0;whiteSpace=wrap;html=1;" parent="-UUE_6B860I99XmVfhRC-1" vertex="1">
          <mxGeometry x="1760" y="80" width="160" height="40" as="geometry" />
        </mxCell>
        <mxCell id="FHpEhkKL6YUrtx53bkjI-46" style="edgeStyle=orthogonalEdgeStyle;rounded=0;orthogonalLoop=1;jettySize=auto;html=1;" parent="-UUE_6B860I99XmVfhRC-1" edge="1">
          <mxGeometry relative="1" as="geometry">
            <mxPoint x="1840" y="900" as="targetPoint" />
            <mxPoint x="1840" y="879.9999999999999" as="sourcePoint" />
          </mxGeometry>
        </mxCell>
        <mxCell id="FHpEhkKL6YUrtx53bkjI-47" value="INTR" style="rounded=0;whiteSpace=wrap;html=1;" parent="-UUE_6B860I99XmVfhRC-1" vertex="1">
          <mxGeometry x="1820" y="900" width="40" height="20" as="geometry" />
        </mxCell>
        <mxCell id="FHpEhkKL6YUrtx53bkjI-48" style="edgeStyle=orthogonalEdgeStyle;rounded=0;orthogonalLoop=1;jettySize=auto;html=1;entryX=0.5;entryY=0;entryDx=0;entryDy=0;" parent="-UUE_6B860I99XmVfhRC-1" edge="1">
          <mxGeometry relative="1" as="geometry">
            <mxPoint x="1599.66" y="140" as="sourcePoint" />
            <mxPoint x="1599.66" y="180" as="targetPoint" />
          </mxGeometry>
        </mxCell>
        <mxCell id="FHpEhkKL6YUrtx53bkjI-49" value="&lt;div&gt;&lt;i&gt;MDR&amp;lt;=A[15..8]&lt;/i&gt;&lt;/div&gt;ldMDR, mxMDR0, mxMDR2" style="rounded=0;whiteSpace=wrap;html=1;" parent="-UUE_6B860I99XmVfhRC-1" vertex="1">
          <mxGeometry x="1520" y="180" width="160" height="40" as="geometry" />
        </mxCell>
        <mxCell id="FHpEhkKL6YUrtx53bkjI-53" style="edgeStyle=orthogonalEdgeStyle;rounded=0;orthogonalLoop=1;jettySize=auto;html=1;entryX=0.5;entryY=0;entryDx=0;entryDy=0;" parent="-UUE_6B860I99XmVfhRC-1" edge="1">
          <mxGeometry relative="1" as="geometry">
            <mxPoint x="1599.6599999999999" y="220" as="sourcePoint" />
            <mxPoint x="1599.6599999999999" y="260" as="targetPoint" />
          </mxGeometry>
        </mxCell>
        <mxCell id="FHpEhkKL6YUrtx53bkjI-56" style="edgeStyle=orthogonalEdgeStyle;rounded=0;orthogonalLoop=1;jettySize=auto;html=1;entryX=0.5;entryY=0;entryDx=0;entryDy=0;" parent="-UUE_6B860I99XmVfhRC-1" edge="1">
          <mxGeometry relative="1" as="geometry">
            <mxPoint x="1599.6599999999999" y="220" as="sourcePoint" />
            <mxPoint x="1599.6599999999999" y="260" as="targetPoint" />
          </mxGeometry>
        </mxCell>
        <mxCell id="FHpEhkKL6YUrtx53bkjI-59" value="&lt;div&gt;&lt;i&gt;MDR&amp;lt;=A[15..8]&lt;/i&gt;&lt;/div&gt;ldMDR, mxMDR0, mxMDR2" style="rounded=0;whiteSpace=wrap;html=1;" parent="-UUE_6B860I99XmVfhRC-1" vertex="1">
          <mxGeometry x="1520" y="180" width="160" height="40" as="geometry" />
        </mxCell>
        <mxCell id="FHpEhkKL6YUrtx53bkjI-63" style="edgeStyle=orthogonalEdgeStyle;rounded=0;orthogonalLoop=1;jettySize=auto;html=1;entryX=0.5;entryY=0;entryDx=0;entryDy=0;" parent="-UUE_6B860I99XmVfhRC-1" edge="1">
          <mxGeometry relative="1" as="geometry">
            <mxPoint x="1599.6599999999999" y="220" as="sourcePoint" />
            <mxPoint x="1599.6599999999999" y="260" as="targetPoint" />
          </mxGeometry>
        </mxCell>
        <mxCell id="FHpEhkKL6YUrtx53bkjI-65" style="edgeStyle=orthogonalEdgeStyle;rounded=0;orthogonalLoop=1;jettySize=auto;html=1;entryX=0.5;entryY=0;entryDx=0;entryDy=0;" parent="-UUE_6B860I99XmVfhRC-1" edge="1">
          <mxGeometry relative="1" as="geometry">
            <mxPoint x="1599.6599999999999" y="220" as="sourcePoint" />
            <mxPoint x="1599.6599999999999" y="260" as="targetPoint" />
          </mxGeometry>
        </mxCell>
        <mxCell id="QnMg1NttgAX-RU2CEdgK-1" value="&lt;div&gt;wrMEM&lt;/div&gt;" style="rounded=0;whiteSpace=wrap;html=1;" vertex="1" parent="-UUE_6B860I99XmVfhRC-1">
          <mxGeometry x="1520" y="260" width="160" height="40" as="geometry" />
        </mxCell>
        <mxCell id="QnMg1NttgAX-RU2CEdgK-2" style="edgeStyle=orthogonalEdgeStyle;rounded=0;orthogonalLoop=1;jettySize=auto;html=1;entryX=0.5;entryY=0;entryDx=0;entryDy=0;" edge="1" parent="-UUE_6B860I99XmVfhRC-1" target="QnMg1NttgAX-RU2CEdgK-4">
          <mxGeometry relative="1" as="geometry">
            <mxPoint x="1600" y="300" as="sourcePoint" />
          </mxGeometry>
        </mxCell>
        <mxCell id="QnMg1NttgAX-RU2CEdgK-3" style="edgeStyle=orthogonalEdgeStyle;rounded=0;orthogonalLoop=1;jettySize=auto;html=1;entryX=1;entryY=0.5;entryDx=0;entryDy=0;" edge="1" parent="-UUE_6B860I99XmVfhRC-1" source="QnMg1NttgAX-RU2CEdgK-4">
          <mxGeometry relative="1" as="geometry">
            <mxPoint x="1680" y="280" as="targetPoint" />
            <Array as="points">
              <mxPoint x="1720" y="360" />
              <mxPoint x="1720" y="280" />
            </Array>
          </mxGeometry>
        </mxCell>
        <mxCell id="QnMg1NttgAX-RU2CEdgK-4" value="notFCBUS" style="shape=hexagon;perimeter=hexagonPerimeter2;whiteSpace=wrap;html=1;fixedSize=1;" vertex="1" parent="-UUE_6B860I99XmVfhRC-1">
          <mxGeometry x="1520" y="340" width="160" height="40" as="geometry" />
        </mxCell>
        <mxCell id="QnMg1NttgAX-RU2CEdgK-5" value="0" style="text;html=1;strokeColor=none;fillColor=none;align=center;verticalAlign=middle;whiteSpace=wrap;rounded=0;" vertex="1" parent="-UUE_6B860I99XmVfhRC-1">
          <mxGeometry x="1560" y="390" width="40" height="20" as="geometry" />
        </mxCell>
        <mxCell id="QnMg1NttgAX-RU2CEdgK-6" value="1" style="text;html=1;strokeColor=none;fillColor=none;align=center;verticalAlign=middle;whiteSpace=wrap;rounded=0;" vertex="1" parent="-UUE_6B860I99XmVfhRC-1">
          <mxGeometry x="1680" y="340" width="40" height="20" as="geometry" />
        </mxCell>
        <mxCell id="QnMg1NttgAX-RU2CEdgK-7" value="&lt;div&gt;wrMEM&lt;/div&gt;" style="rounded=0;whiteSpace=wrap;html=1;" vertex="1" parent="-UUE_6B860I99XmVfhRC-1">
          <mxGeometry x="3000" y="440" width="160" height="40" as="geometry" />
        </mxCell>
        <mxCell id="QnMg1NttgAX-RU2CEdgK-8" style="edgeStyle=orthogonalEdgeStyle;rounded=0;orthogonalLoop=1;jettySize=auto;html=1;entryX=0.5;entryY=0;entryDx=0;entryDy=0;" edge="1" parent="-UUE_6B860I99XmVfhRC-1">
          <mxGeometry relative="1" as="geometry">
            <mxPoint x="1599.52" y="380" as="sourcePoint" />
            <mxPoint x="1599.52" y="420" as="targetPoint" />
          </mxGeometry>
        </mxCell>
        <mxCell id="QnMg1NttgAX-RU2CEdgK-9" value="&lt;div&gt;&lt;i&gt;MAR&amp;lt;=SP, decSP&lt;br&gt;&lt;/i&gt;&lt;/div&gt;&lt;div&gt;ldMAR, mxMAR0, mxMAR2, decSP&lt;br&gt;&lt;/div&gt;" style="rounded=0;whiteSpace=wrap;html=1;" vertex="1" parent="-UUE_6B860I99XmVfhRC-1">
          <mxGeometry x="1520" y="420" width="160" height="60" as="geometry" />
        </mxCell>
        <mxCell id="QnMg1NttgAX-RU2CEdgK-10" style="edgeStyle=orthogonalEdgeStyle;rounded=0;orthogonalLoop=1;jettySize=auto;html=1;entryX=0.5;entryY=0;entryDx=0;entryDy=0;" edge="1" parent="-UUE_6B860I99XmVfhRC-1">
          <mxGeometry relative="1" as="geometry">
            <mxPoint x="1599.6599999999999" y="480" as="sourcePoint" />
            <mxPoint x="1599.6599999999999" y="520" as="targetPoint" />
          </mxGeometry>
        </mxCell>
        <mxCell id="QnMg1NttgAX-RU2CEdgK-11" value="&lt;div&gt;&lt;i&gt;MDR&amp;lt;=A[7..0]&lt;/i&gt;&lt;/div&gt;ldMDR, mxMDR1, mxMDR2" style="rounded=0;whiteSpace=wrap;html=1;" vertex="1" parent="-UUE_6B860I99XmVfhRC-1">
          <mxGeometry x="1520" y="520" width="160" height="40" as="geometry" />
        </mxCell>
        <mxCell id="QnMg1NttgAX-RU2CEdgK-12" style="edgeStyle=orthogonalEdgeStyle;rounded=0;orthogonalLoop=1;jettySize=auto;html=1;entryX=0.5;entryY=0;entryDx=0;entryDy=0;" edge="1" parent="-UUE_6B860I99XmVfhRC-1">
          <mxGeometry relative="1" as="geometry">
            <mxPoint x="1599.6599999999999" y="560" as="sourcePoint" />
            <mxPoint x="1599.6599999999999" y="600" as="targetPoint" />
          </mxGeometry>
        </mxCell>
        <mxCell id="QnMg1NttgAX-RU2CEdgK-13" value="&lt;div&gt;wrMEM&lt;/div&gt;" style="rounded=0;whiteSpace=wrap;html=1;" vertex="1" parent="-UUE_6B860I99XmVfhRC-1">
          <mxGeometry x="1520" y="600" width="160" height="40" as="geometry" />
        </mxCell>
        <mxCell id="QnMg1NttgAX-RU2CEdgK-14" style="edgeStyle=orthogonalEdgeStyle;rounded=0;orthogonalLoop=1;jettySize=auto;html=1;entryX=0.5;entryY=0;entryDx=0;entryDy=0;" edge="1" parent="-UUE_6B860I99XmVfhRC-1" target="QnMg1NttgAX-RU2CEdgK-16">
          <mxGeometry relative="1" as="geometry">
            <mxPoint x="1600" y="640" as="sourcePoint" />
          </mxGeometry>
        </mxCell>
        <mxCell id="QnMg1NttgAX-RU2CEdgK-15" style="edgeStyle=orthogonalEdgeStyle;rounded=0;orthogonalLoop=1;jettySize=auto;html=1;entryX=1;entryY=0.5;entryDx=0;entryDy=0;" edge="1" parent="-UUE_6B860I99XmVfhRC-1" source="QnMg1NttgAX-RU2CEdgK-16">
          <mxGeometry relative="1" as="geometry">
            <mxPoint x="1680" y="620" as="targetPoint" />
            <Array as="points">
              <mxPoint x="1720" y="700" />
              <mxPoint x="1720" y="620" />
            </Array>
          </mxGeometry>
        </mxCell>
        <mxCell id="QnMg1NttgAX-RU2CEdgK-16" value="notFCBUS" style="shape=hexagon;perimeter=hexagonPerimeter2;whiteSpace=wrap;html=1;fixedSize=1;" vertex="1" parent="-UUE_6B860I99XmVfhRC-1">
          <mxGeometry x="1520" y="680" width="160" height="40" as="geometry" />
        </mxCell>
        <mxCell id="QnMg1NttgAX-RU2CEdgK-17" value="0" style="text;html=1;strokeColor=none;fillColor=none;align=center;verticalAlign=middle;whiteSpace=wrap;rounded=0;" vertex="1" parent="-UUE_6B860I99XmVfhRC-1">
          <mxGeometry x="1560" y="730" width="40" height="20" as="geometry" />
        </mxCell>
        <mxCell id="QnMg1NttgAX-RU2CEdgK-18" value="1" style="text;html=1;strokeColor=none;fillColor=none;align=center;verticalAlign=middle;whiteSpace=wrap;rounded=0;" vertex="1" parent="-UUE_6B860I99XmVfhRC-1">
          <mxGeometry x="1680" y="680" width="40" height="20" as="geometry" />
        </mxCell>
        <mxCell id="QnMg1NttgAX-RU2CEdgK-19" style="edgeStyle=orthogonalEdgeStyle;rounded=0;orthogonalLoop=1;jettySize=auto;html=1;entryX=0.5;entryY=0;entryDx=0;entryDy=0;" edge="1" parent="-UUE_6B860I99XmVfhRC-1">
          <mxGeometry relative="1" as="geometry">
            <mxPoint x="1599.52" y="720" as="sourcePoint" />
            <mxPoint x="1599.52" y="760" as="targetPoint" />
          </mxGeometry>
        </mxCell>
        <mxCell id="QnMg1NttgAX-RU2CEdgK-20" value="clEXEC, stINTR" style="rounded=0;whiteSpace=wrap;html=1;" vertex="1" parent="-UUE_6B860I99XmVfhRC-1">
          <mxGeometry x="1520" y="760" width="160" height="40" as="geometry" />
        </mxCell>
        <mxCell id="QnMg1NttgAX-RU2CEdgK-21" style="edgeStyle=orthogonalEdgeStyle;rounded=0;orthogonalLoop=1;jettySize=auto;html=1;" edge="1" parent="-UUE_6B860I99XmVfhRC-1">
          <mxGeometry relative="1" as="geometry">
            <mxPoint x="1600" y="820" as="targetPoint" />
            <mxPoint x="1600" y="799.9999999999999" as="sourcePoint" />
          </mxGeometry>
        </mxCell>
        <mxCell id="QnMg1NttgAX-RU2CEdgK-22" value="INTR" style="rounded=0;whiteSpace=wrap;html=1;" vertex="1" parent="-UUE_6B860I99XmVfhRC-1">
          <mxGeometry x="1580" y="820" width="40" height="20" as="geometry" />
        </mxCell>
        <mxCell id="QnMg1NttgAX-RU2CEdgK-23" style="edgeStyle=orthogonalEdgeStyle;rounded=0;orthogonalLoop=1;jettySize=auto;html=1;entryX=0.5;entryY=0;entryDx=0;entryDy=0;" edge="1" parent="-UUE_6B860I99XmVfhRC-1">
          <mxGeometry relative="1" as="geometry">
            <mxPoint x="1839.6599999999999" y="120" as="sourcePoint" />
            <mxPoint x="1839.6599999999999" y="160" as="targetPoint" />
          </mxGeometry>
        </mxCell>
        <mxCell id="QnMg1NttgAX-RU2CEdgK-32" style="edgeStyle=orthogonalEdgeStyle;rounded=0;orthogonalLoop=1;jettySize=auto;html=1;entryX=0.5;entryY=0;entryDx=0;entryDy=0;" edge="1" parent="-UUE_6B860I99XmVfhRC-1" source="QnMg1NttgAX-RU2CEdgK-24" target="QnMg1NttgAX-RU2CEdgK-25">
          <mxGeometry relative="1" as="geometry" />
        </mxCell>
        <mxCell id="QnMg1NttgAX-RU2CEdgK-24" value="&lt;div&gt;&lt;i&gt;MAR&amp;lt;=SP, incSP&lt;br&gt;&lt;/i&gt;&lt;/div&gt;&lt;div&gt;ldMAR, mxMAR0, mxMAR2, incSP&lt;br&gt;&lt;/div&gt;" style="rounded=0;whiteSpace=wrap;html=1;" vertex="1" parent="-UUE_6B860I99XmVfhRC-1">
          <mxGeometry x="1760" y="160" width="160" height="60" as="geometry" />
        </mxCell>
        <mxCell id="QnMg1NttgAX-RU2CEdgK-25" value="&lt;div&gt;&lt;i&gt;MDR&amp;lt;=MEM[MAR]&lt;/i&gt;&lt;/div&gt;&lt;div&gt;rdMEM, ldMDR&lt;br&gt;&lt;/div&gt;" style="rounded=0;whiteSpace=wrap;html=1;" vertex="1" parent="-UUE_6B860I99XmVfhRC-1">
          <mxGeometry x="1760" y="260" width="160" height="40" as="geometry" />
        </mxCell>
        <mxCell id="QnMg1NttgAX-RU2CEdgK-26" style="edgeStyle=orthogonalEdgeStyle;rounded=0;orthogonalLoop=1;jettySize=auto;html=1;entryX=0.5;entryY=0;entryDx=0;entryDy=0;" edge="1" parent="-UUE_6B860I99XmVfhRC-1" target="QnMg1NttgAX-RU2CEdgK-28">
          <mxGeometry relative="1" as="geometry">
            <mxPoint x="1840" y="300" as="sourcePoint" />
          </mxGeometry>
        </mxCell>
        <mxCell id="QnMg1NttgAX-RU2CEdgK-27" style="edgeStyle=orthogonalEdgeStyle;rounded=0;orthogonalLoop=1;jettySize=auto;html=1;entryX=1;entryY=0.5;entryDx=0;entryDy=0;" edge="1" parent="-UUE_6B860I99XmVfhRC-1" source="QnMg1NttgAX-RU2CEdgK-28">
          <mxGeometry relative="1" as="geometry">
            <mxPoint x="1920" y="280" as="targetPoint" />
            <Array as="points">
              <mxPoint x="1960" y="360" />
              <mxPoint x="1960" y="280" />
            </Array>
          </mxGeometry>
        </mxCell>
        <mxCell id="QnMg1NttgAX-RU2CEdgK-28" value="notFCBUS" style="shape=hexagon;perimeter=hexagonPerimeter2;whiteSpace=wrap;html=1;fixedSize=1;" vertex="1" parent="-UUE_6B860I99XmVfhRC-1">
          <mxGeometry x="1760" y="340" width="160" height="40" as="geometry" />
        </mxCell>
        <mxCell id="QnMg1NttgAX-RU2CEdgK-29" value="0" style="text;html=1;strokeColor=none;fillColor=none;align=center;verticalAlign=middle;whiteSpace=wrap;rounded=0;" vertex="1" parent="-UUE_6B860I99XmVfhRC-1">
          <mxGeometry x="1800" y="390" width="40" height="20" as="geometry" />
        </mxCell>
        <mxCell id="QnMg1NttgAX-RU2CEdgK-30" value="1" style="text;html=1;strokeColor=none;fillColor=none;align=center;verticalAlign=middle;whiteSpace=wrap;rounded=0;" vertex="1" parent="-UUE_6B860I99XmVfhRC-1">
          <mxGeometry x="1920" y="340" width="40" height="20" as="geometry" />
        </mxCell>
        <mxCell id="QnMg1NttgAX-RU2CEdgK-31" style="edgeStyle=orthogonalEdgeStyle;rounded=0;orthogonalLoop=1;jettySize=auto;html=1;entryX=0.5;entryY=0;entryDx=0;entryDy=0;" edge="1" parent="-UUE_6B860I99XmVfhRC-1">
          <mxGeometry relative="1" as="geometry">
            <mxPoint x="1839.52" y="380" as="sourcePoint" />
            <mxPoint x="1839.52" y="420" as="targetPoint" />
          </mxGeometry>
        </mxCell>
        <mxCell id="QnMg1NttgAX-RU2CEdgK-34" value="&lt;div&gt;&lt;i&gt;MAR&amp;lt;=SP, B[7..0]&amp;lt;=MDR&lt;br&gt;&lt;/i&gt;&lt;/div&gt;&lt;div&gt;ldMAR, mxMAR0, mxMAR2,&lt;/div&gt;&lt;div&gt;ldB, mxB0&lt;br&gt;&lt;/div&gt;" style="rounded=0;whiteSpace=wrap;html=1;" vertex="1" parent="-UUE_6B860I99XmVfhRC-1">
          <mxGeometry x="1760" y="420" width="160" height="60" as="geometry" />
        </mxCell>
        <mxCell id="QnMg1NttgAX-RU2CEdgK-35" style="edgeStyle=orthogonalEdgeStyle;rounded=0;orthogonalLoop=1;jettySize=auto;html=1;entryX=0.5;entryY=0;entryDx=0;entryDy=0;" edge="1" parent="-UUE_6B860I99XmVfhRC-1">
          <mxGeometry relative="1" as="geometry">
            <mxPoint x="1839.52" y="480" as="sourcePoint" />
            <mxPoint x="1839.52" y="520" as="targetPoint" />
            <Array as="points">
              <mxPoint x="1839.52" y="500" />
              <mxPoint x="1839.52" y="500" />
            </Array>
          </mxGeometry>
        </mxCell>
        <mxCell id="QnMg1NttgAX-RU2CEdgK-36" value="&lt;div&gt;&lt;i&gt;MDR&amp;lt;=MEM[MAR]&lt;/i&gt;&lt;/div&gt;&lt;div&gt;rdMEM, ldMDR&lt;br&gt;&lt;/div&gt;" style="rounded=0;whiteSpace=wrap;html=1;" vertex="1" parent="-UUE_6B860I99XmVfhRC-1">
          <mxGeometry x="1760" y="520" width="160" height="40" as="geometry" />
        </mxCell>
        <mxCell id="QnMg1NttgAX-RU2CEdgK-37" style="edgeStyle=orthogonalEdgeStyle;rounded=0;orthogonalLoop=1;jettySize=auto;html=1;entryX=0.5;entryY=0;entryDx=0;entryDy=0;" edge="1" parent="-UUE_6B860I99XmVfhRC-1" target="QnMg1NttgAX-RU2CEdgK-39">
          <mxGeometry relative="1" as="geometry">
            <mxPoint x="1840" y="560" as="sourcePoint" />
          </mxGeometry>
        </mxCell>
        <mxCell id="QnMg1NttgAX-RU2CEdgK-38" style="edgeStyle=orthogonalEdgeStyle;rounded=0;orthogonalLoop=1;jettySize=auto;html=1;entryX=1;entryY=0.5;entryDx=0;entryDy=0;" edge="1" parent="-UUE_6B860I99XmVfhRC-1" source="QnMg1NttgAX-RU2CEdgK-39">
          <mxGeometry relative="1" as="geometry">
            <mxPoint x="1920" y="540" as="targetPoint" />
            <Array as="points">
              <mxPoint x="1960" y="620" />
              <mxPoint x="1960" y="540" />
            </Array>
          </mxGeometry>
        </mxCell>
        <mxCell id="QnMg1NttgAX-RU2CEdgK-39" value="notFCBUS" style="shape=hexagon;perimeter=hexagonPerimeter2;whiteSpace=wrap;html=1;fixedSize=1;" vertex="1" parent="-UUE_6B860I99XmVfhRC-1">
          <mxGeometry x="1760" y="600" width="160" height="40" as="geometry" />
        </mxCell>
        <mxCell id="QnMg1NttgAX-RU2CEdgK-40" value="0" style="text;html=1;strokeColor=none;fillColor=none;align=center;verticalAlign=middle;whiteSpace=wrap;rounded=0;" vertex="1" parent="-UUE_6B860I99XmVfhRC-1">
          <mxGeometry x="1800" y="650" width="40" height="20" as="geometry" />
        </mxCell>
        <mxCell id="QnMg1NttgAX-RU2CEdgK-41" value="1" style="text;html=1;strokeColor=none;fillColor=none;align=center;verticalAlign=middle;whiteSpace=wrap;rounded=0;" vertex="1" parent="-UUE_6B860I99XmVfhRC-1">
          <mxGeometry x="1920" y="600" width="40" height="20" as="geometry" />
        </mxCell>
        <mxCell id="QnMg1NttgAX-RU2CEdgK-42" style="edgeStyle=orthogonalEdgeStyle;rounded=0;orthogonalLoop=1;jettySize=auto;html=1;entryX=0.5;entryY=0;entryDx=0;entryDy=0;" edge="1" parent="-UUE_6B860I99XmVfhRC-1">
          <mxGeometry relative="1" as="geometry">
            <mxPoint x="1839.52" y="640" as="sourcePoint" />
            <mxPoint x="1839.52" y="680" as="targetPoint" />
          </mxGeometry>
        </mxCell>
        <mxCell id="QnMg1NttgAX-RU2CEdgK-43" value="&lt;div&gt;&lt;i&gt;B[15..8]&amp;lt;=MDR&lt;br&gt;&lt;/i&gt;&lt;/div&gt;&lt;div&gt;ldB, mxB1&lt;br&gt;&lt;/div&gt;" style="rounded=0;whiteSpace=wrap;html=1;" vertex="1" parent="-UUE_6B860I99XmVfhRC-1">
          <mxGeometry x="1760" y="680" width="160" height="40" as="geometry" />
        </mxCell>
        <mxCell id="QnMg1NttgAX-RU2CEdgK-44" style="edgeStyle=orthogonalEdgeStyle;rounded=0;orthogonalLoop=1;jettySize=auto;html=1;entryX=0.5;entryY=0;entryDx=0;entryDy=0;" edge="1" parent="-UUE_6B860I99XmVfhRC-1">
          <mxGeometry relative="1" as="geometry">
            <mxPoint x="1840" y="720" as="sourcePoint" />
            <mxPoint x="1840" y="760" as="targetPoint" />
            <Array as="points">
              <mxPoint x="1840" y="740" />
              <mxPoint x="1840" y="740" />
            </Array>
          </mxGeometry>
        </mxCell>
        <mxCell id="QnMg1NttgAX-RU2CEdgK-45" value="&lt;div&gt;&lt;i&gt;A&amp;lt;=B&lt;/i&gt;&lt;/div&gt;&lt;div&gt;ldA&lt;br&gt;&lt;i&gt;&lt;/i&gt;&lt;/div&gt;" style="rounded=0;whiteSpace=wrap;html=1;" vertex="1" parent="-UUE_6B860I99XmVfhRC-1">
          <mxGeometry x="1760" y="760" width="160" height="40" as="geometry" />
        </mxCell>
        <mxCell id="QnMg1NttgAX-RU2CEdgK-46" style="edgeStyle=orthogonalEdgeStyle;rounded=0;orthogonalLoop=1;jettySize=auto;html=1;entryX=0.5;entryY=0;entryDx=0;entryDy=0;" edge="1" parent="-UUE_6B860I99XmVfhRC-1">
          <mxGeometry relative="1" as="geometry">
            <mxPoint x="1840" y="800" as="sourcePoint" />
            <mxPoint x="1840" y="840" as="targetPoint" />
            <Array as="points">
              <mxPoint x="1840" y="820" />
              <mxPoint x="1840" y="820" />
            </Array>
          </mxGeometry>
        </mxCell>
        <mxCell id="QnMg1NttgAX-RU2CEdgK-47" value="ldPSWN, ldPSWZ, clEXEC, stINTR" style="rounded=0;whiteSpace=wrap;html=1;" vertex="1" parent="-UUE_6B860I99XmVfhRC-1">
          <mxGeometry x="1760" y="840" width="160" height="40" as="geometry" />
        </mxCell>
      </root>
    </mxGraphModel>
  </diagram>
  <diagram id="6_2e_0Pg-6uRhrbWFLX5" name="INTR">
    <mxGraphModel dx="1182" dy="733" grid="1" gridSize="10" guides="1" tooltips="1" connect="1" arrows="1" fold="1" page="1" pageScale="1" pageWidth="827" pageHeight="1169" math="0" shadow="0">
      <root>
        <mxCell id="oyPLQnZpYdEiHO4VfaXY-0" />
        <mxCell id="oyPLQnZpYdEiHO4VfaXY-1" parent="oyPLQnZpYdEiHO4VfaXY-0" />
        <mxCell id="Q2duJgZ4STVSI7_JrXco-1" style="edgeStyle=orthogonalEdgeStyle;rounded=0;orthogonalLoop=1;jettySize=auto;html=1;" parent="oyPLQnZpYdEiHO4VfaXY-1" source="Q2duJgZ4STVSI7_JrXco-0" edge="1">
          <mxGeometry relative="1" as="geometry">
            <mxPoint x="120" y="80" as="targetPoint" />
          </mxGeometry>
        </mxCell>
        <mxCell id="Q2duJgZ4STVSI7_JrXco-0" value="INTR" style="rounded=0;whiteSpace=wrap;html=1;" parent="oyPLQnZpYdEiHO4VfaXY-1" vertex="1">
          <mxGeometry x="100" y="40" width="40" height="20" as="geometry" />
        </mxCell>
        <mxCell id="Q2duJgZ4STVSI7_JrXco-68" style="edgeStyle=orthogonalEdgeStyle;rounded=0;orthogonalLoop=1;jettySize=auto;html=1;entryX=0.5;entryY=0;entryDx=0;entryDy=0;" parent="oyPLQnZpYdEiHO4VfaXY-1" source="Q2duJgZ4STVSI7_JrXco-2" target="Q2duJgZ4STVSI7_JrXco-3" edge="1">
          <mxGeometry relative="1" as="geometry" />
        </mxCell>
        <mxCell id="Q2duJgZ4STVSI7_JrXco-2" value="" style="rounded=0;whiteSpace=wrap;html=1;" parent="oyPLQnZpYdEiHO4VfaXY-1" vertex="1">
          <mxGeometry x="40" y="80" width="160" height="40" as="geometry" />
        </mxCell>
        <mxCell id="Q2duJgZ4STVSI7_JrXco-4" style="edgeStyle=orthogonalEdgeStyle;rounded=0;orthogonalLoop=1;jettySize=auto;html=1;entryX=1;entryY=0.5;entryDx=0;entryDy=0;" parent="oyPLQnZpYdEiHO4VfaXY-1" source="Q2duJgZ4STVSI7_JrXco-3" target="Q2duJgZ4STVSI7_JrXco-2" edge="1">
          <mxGeometry relative="1" as="geometry">
            <mxPoint x="240" y="100" as="targetPoint" />
            <Array as="points">
              <mxPoint x="240" y="180" />
              <mxPoint x="240" y="100" />
            </Array>
          </mxGeometry>
        </mxCell>
        <mxCell id="Q2duJgZ4STVSI7_JrXco-17" style="edgeStyle=orthogonalEdgeStyle;rounded=0;orthogonalLoop=1;jettySize=auto;html=1;entryX=0.5;entryY=0;entryDx=0;entryDy=0;" parent="oyPLQnZpYdEiHO4VfaXY-1" source="Q2duJgZ4STVSI7_JrXco-3" target="Q2duJgZ4STVSI7_JrXco-9" edge="1">
          <mxGeometry relative="1" as="geometry" />
        </mxCell>
        <mxCell id="Q2duJgZ4STVSI7_JrXco-3" value="notINTR" style="shape=hexagon;perimeter=hexagonPerimeter2;whiteSpace=wrap;html=1;fixedSize=1;" parent="oyPLQnZpYdEiHO4VfaXY-1" vertex="1">
          <mxGeometry x="40" y="160" width="160" height="40" as="geometry" />
        </mxCell>
        <mxCell id="Q2duJgZ4STVSI7_JrXco-6" value="1" style="text;html=1;strokeColor=none;fillColor=none;align=center;verticalAlign=middle;whiteSpace=wrap;rounded=0;" parent="oyPLQnZpYdEiHO4VfaXY-1" vertex="1">
          <mxGeometry x="200" y="160" width="40" height="20" as="geometry" />
        </mxCell>
        <mxCell id="Q2duJgZ4STVSI7_JrXco-16" style="edgeStyle=orthogonalEdgeStyle;rounded=0;orthogonalLoop=1;jettySize=auto;html=1;entryX=0.5;entryY=0;entryDx=0;entryDy=0;" parent="oyPLQnZpYdEiHO4VfaXY-1" source="Q2duJgZ4STVSI7_JrXco-9" target="Q2duJgZ4STVSI7_JrXco-10" edge="1">
          <mxGeometry relative="1" as="geometry" />
        </mxCell>
        <mxCell id="Q2duJgZ4STVSI7_JrXco-9" value="" style="rounded=0;whiteSpace=wrap;html=1;" parent="oyPLQnZpYdEiHO4VfaXY-1" vertex="1">
          <mxGeometry x="40" y="240" width="160" height="40" as="geometry" />
        </mxCell>
        <mxCell id="Q2duJgZ4STVSI7_JrXco-14" style="edgeStyle=orthogonalEdgeStyle;rounded=0;orthogonalLoop=1;jettySize=auto;html=1;entryX=0;entryY=0.5;entryDx=0;entryDy=0;" parent="oyPLQnZpYdEiHO4VfaXY-1" source="Q2duJgZ4STVSI7_JrXco-10" edge="1">
          <mxGeometry relative="1" as="geometry">
            <mxPoint x="240" y="340" as="targetPoint" />
          </mxGeometry>
        </mxCell>
        <mxCell id="Q2duJgZ4STVSI7_JrXco-21" style="edgeStyle=orthogonalEdgeStyle;rounded=0;orthogonalLoop=1;jettySize=auto;html=1;" parent="oyPLQnZpYdEiHO4VfaXY-1" source="Q2duJgZ4STVSI7_JrXco-10" edge="1">
          <mxGeometry relative="1" as="geometry">
            <mxPoint x="120" y="400" as="targetPoint" />
          </mxGeometry>
        </mxCell>
        <mxCell id="Q2duJgZ4STVSI7_JrXco-10" value="notPrekid" style="shape=hexagon;perimeter=hexagonPerimeter2;whiteSpace=wrap;html=1;fixedSize=1;" parent="oyPLQnZpYdEiHO4VfaXY-1" vertex="1">
          <mxGeometry x="40" y="320" width="160" height="40" as="geometry" />
        </mxCell>
        <mxCell id="Q2duJgZ4STVSI7_JrXco-15" value="1" style="text;html=1;strokeColor=none;fillColor=none;align=center;verticalAlign=middle;whiteSpace=wrap;rounded=0;" parent="oyPLQnZpYdEiHO4VfaXY-1" vertex="1">
          <mxGeometry x="200" y="320" width="40" height="20" as="geometry" />
        </mxCell>
        <mxCell id="Q2duJgZ4STVSI7_JrXco-18" value="0" style="text;html=1;strokeColor=none;fillColor=none;align=center;verticalAlign=middle;whiteSpace=wrap;rounded=0;" parent="oyPLQnZpYdEiHO4VfaXY-1" vertex="1">
          <mxGeometry x="80" y="210" width="40" height="20" as="geometry" />
        </mxCell>
        <mxCell id="Q2duJgZ4STVSI7_JrXco-20" value="0" style="text;html=1;strokeColor=none;fillColor=none;align=center;verticalAlign=middle;whiteSpace=wrap;rounded=0;" parent="oyPLQnZpYdEiHO4VfaXY-1" vertex="1">
          <mxGeometry x="80" y="370" width="40" height="20" as="geometry" />
        </mxCell>
        <mxCell id="Q2duJgZ4STVSI7_JrXco-24" style="edgeStyle=orthogonalEdgeStyle;rounded=0;orthogonalLoop=1;jettySize=auto;html=1;" parent="oyPLQnZpYdEiHO4VfaXY-1" source="Q2duJgZ4STVSI7_JrXco-23" edge="1">
          <mxGeometry relative="1" as="geometry">
            <mxPoint x="120" y="480" as="targetPoint" />
          </mxGeometry>
        </mxCell>
        <mxCell id="Q2duJgZ4STVSI7_JrXco-23" value="decSP, ldMAR, mxMAR0, mxMAR2, ldMDR, mxMDR0" style="rounded=0;whiteSpace=wrap;html=1;" parent="oyPLQnZpYdEiHO4VfaXY-1" vertex="1">
          <mxGeometry x="40" y="400" width="160" height="40" as="geometry" />
        </mxCell>
        <mxCell id="Q2duJgZ4STVSI7_JrXco-26" style="edgeStyle=orthogonalEdgeStyle;rounded=0;orthogonalLoop=1;jettySize=auto;html=1;" parent="oyPLQnZpYdEiHO4VfaXY-1" source="Q2duJgZ4STVSI7_JrXco-25" edge="1">
          <mxGeometry relative="1" as="geometry">
            <mxPoint x="120" y="560" as="targetPoint" />
          </mxGeometry>
        </mxCell>
        <mxCell id="Q2duJgZ4STVSI7_JrXco-25" value="wrMEM" style="rounded=0;whiteSpace=wrap;html=1;" parent="oyPLQnZpYdEiHO4VfaXY-1" vertex="1">
          <mxGeometry x="40" y="480" width="160" height="40" as="geometry" />
        </mxCell>
        <mxCell id="Q2duJgZ4STVSI7_JrXco-27" style="edgeStyle=orthogonalEdgeStyle;rounded=0;orthogonalLoop=1;jettySize=auto;html=1;entryX=1;entryY=0.5;entryDx=0;entryDy=0;" parent="oyPLQnZpYdEiHO4VfaXY-1" source="Q2duJgZ4STVSI7_JrXco-28" edge="1">
          <mxGeometry relative="1" as="geometry">
            <mxPoint x="200" y="500" as="targetPoint" />
            <Array as="points">
              <mxPoint x="240" y="580" />
              <mxPoint x="240" y="500" />
            </Array>
          </mxGeometry>
        </mxCell>
        <mxCell id="Q2duJgZ4STVSI7_JrXco-32" style="edgeStyle=orthogonalEdgeStyle;rounded=0;orthogonalLoop=1;jettySize=auto;html=1;" parent="oyPLQnZpYdEiHO4VfaXY-1" source="Q2duJgZ4STVSI7_JrXco-28" edge="1">
          <mxGeometry relative="1" as="geometry">
            <mxPoint x="120" y="640" as="targetPoint" />
          </mxGeometry>
        </mxCell>
        <mxCell id="Q2duJgZ4STVSI7_JrXco-28" value="notFCBUS" style="shape=hexagon;perimeter=hexagonPerimeter2;whiteSpace=wrap;html=1;fixedSize=1;" parent="oyPLQnZpYdEiHO4VfaXY-1" vertex="1">
          <mxGeometry x="40" y="560" width="160" height="40" as="geometry" />
        </mxCell>
        <mxCell id="Q2duJgZ4STVSI7_JrXco-29" value="1" style="text;html=1;strokeColor=none;fillColor=none;align=center;verticalAlign=middle;whiteSpace=wrap;rounded=0;" parent="oyPLQnZpYdEiHO4VfaXY-1" vertex="1">
          <mxGeometry x="200" y="560" width="40" height="20" as="geometry" />
        </mxCell>
        <mxCell id="Q2duJgZ4STVSI7_JrXco-31" value="0" style="text;html=1;strokeColor=none;fillColor=none;align=center;verticalAlign=middle;whiteSpace=wrap;rounded=0;" parent="oyPLQnZpYdEiHO4VfaXY-1" vertex="1">
          <mxGeometry x="80" y="610" width="40" height="20" as="geometry" />
        </mxCell>
        <mxCell id="Q2duJgZ4STVSI7_JrXco-33" style="edgeStyle=orthogonalEdgeStyle;rounded=0;orthogonalLoop=1;jettySize=auto;html=1;" parent="oyPLQnZpYdEiHO4VfaXY-1" source="Q2duJgZ4STVSI7_JrXco-34" edge="1">
          <mxGeometry relative="1" as="geometry">
            <mxPoint x="120" y="720" as="targetPoint" />
          </mxGeometry>
        </mxCell>
        <mxCell id="Q2duJgZ4STVSI7_JrXco-34" value="decSP, ldMAR, mxMAR0, mxMAR2, ldMDR, mxMDR1" style="rounded=0;whiteSpace=wrap;html=1;" parent="oyPLQnZpYdEiHO4VfaXY-1" vertex="1">
          <mxGeometry x="40" y="640" width="160" height="40" as="geometry" />
        </mxCell>
        <mxCell id="Q2duJgZ4STVSI7_JrXco-35" style="edgeStyle=orthogonalEdgeStyle;rounded=0;orthogonalLoop=1;jettySize=auto;html=1;" parent="oyPLQnZpYdEiHO4VfaXY-1" source="Q2duJgZ4STVSI7_JrXco-36" edge="1">
          <mxGeometry relative="1" as="geometry">
            <mxPoint x="120" y="800" as="targetPoint" />
          </mxGeometry>
        </mxCell>
        <mxCell id="Q2duJgZ4STVSI7_JrXco-36" value="wrMEM" style="rounded=0;whiteSpace=wrap;html=1;" parent="oyPLQnZpYdEiHO4VfaXY-1" vertex="1">
          <mxGeometry x="40" y="720" width="160" height="40" as="geometry" />
        </mxCell>
        <mxCell id="Q2duJgZ4STVSI7_JrXco-37" style="edgeStyle=orthogonalEdgeStyle;rounded=0;orthogonalLoop=1;jettySize=auto;html=1;entryX=1;entryY=0.5;entryDx=0;entryDy=0;" parent="oyPLQnZpYdEiHO4VfaXY-1" source="Q2duJgZ4STVSI7_JrXco-39" edge="1">
          <mxGeometry relative="1" as="geometry">
            <mxPoint x="200" y="740" as="targetPoint" />
            <Array as="points">
              <mxPoint x="240" y="820" />
              <mxPoint x="240" y="740" />
            </Array>
          </mxGeometry>
        </mxCell>
        <mxCell id="Q2duJgZ4STVSI7_JrXco-38" style="edgeStyle=orthogonalEdgeStyle;rounded=0;orthogonalLoop=1;jettySize=auto;html=1;" parent="oyPLQnZpYdEiHO4VfaXY-1" source="Q2duJgZ4STVSI7_JrXco-39" edge="1">
          <mxGeometry relative="1" as="geometry">
            <mxPoint x="120" y="880" as="targetPoint" />
          </mxGeometry>
        </mxCell>
        <mxCell id="Q2duJgZ4STVSI7_JrXco-39" value="notFCBUS" style="shape=hexagon;perimeter=hexagonPerimeter2;whiteSpace=wrap;html=1;fixedSize=1;" parent="oyPLQnZpYdEiHO4VfaXY-1" vertex="1">
          <mxGeometry x="40" y="800" width="160" height="40" as="geometry" />
        </mxCell>
        <mxCell id="Q2duJgZ4STVSI7_JrXco-40" value="1" style="text;html=1;strokeColor=none;fillColor=none;align=center;verticalAlign=middle;whiteSpace=wrap;rounded=0;" parent="oyPLQnZpYdEiHO4VfaXY-1" vertex="1">
          <mxGeometry x="200" y="800" width="40" height="20" as="geometry" />
        </mxCell>
        <mxCell id="Q2duJgZ4STVSI7_JrXco-41" value="0" style="text;html=1;strokeColor=none;fillColor=none;align=center;verticalAlign=middle;whiteSpace=wrap;rounded=0;" parent="oyPLQnZpYdEiHO4VfaXY-1" vertex="1">
          <mxGeometry x="80" y="850" width="40" height="20" as="geometry" />
        </mxCell>
        <mxCell id="Q2duJgZ4STVSI7_JrXco-65" style="edgeStyle=orthogonalEdgeStyle;rounded=0;orthogonalLoop=1;jettySize=auto;html=1;entryX=0.5;entryY=0;entryDx=0;entryDy=0;" parent="oyPLQnZpYdEiHO4VfaXY-1" source="Q2duJgZ4STVSI7_JrXco-54" target="Q2duJgZ4STVSI7_JrXco-56" edge="1">
          <mxGeometry relative="1" as="geometry" />
        </mxCell>
        <mxCell id="Q2duJgZ4STVSI7_JrXco-54" value="decSP, ldMAR, mxMAR0, mxMAR2, ldMDR, mxMDR0, mxMDR1" style="rounded=0;whiteSpace=wrap;html=1;" parent="oyPLQnZpYdEiHO4VfaXY-1" vertex="1">
          <mxGeometry x="40" y="880" width="160" height="80" as="geometry" />
        </mxCell>
        <mxCell id="Q2duJgZ4STVSI7_JrXco-55" style="edgeStyle=orthogonalEdgeStyle;rounded=0;orthogonalLoop=1;jettySize=auto;html=1;" parent="oyPLQnZpYdEiHO4VfaXY-1" source="Q2duJgZ4STVSI7_JrXco-56" edge="1">
          <mxGeometry relative="1" as="geometry">
            <mxPoint x="120" y="1080" as="targetPoint" />
          </mxGeometry>
        </mxCell>
        <mxCell id="Q2duJgZ4STVSI7_JrXco-56" value="wrMEM" style="rounded=0;whiteSpace=wrap;html=1;" parent="oyPLQnZpYdEiHO4VfaXY-1" vertex="1">
          <mxGeometry x="40" y="1000" width="160" height="40" as="geometry" />
        </mxCell>
        <mxCell id="Q2duJgZ4STVSI7_JrXco-57" style="edgeStyle=orthogonalEdgeStyle;rounded=0;orthogonalLoop=1;jettySize=auto;html=1;entryX=1;entryY=0.5;entryDx=0;entryDy=0;" parent="oyPLQnZpYdEiHO4VfaXY-1" source="Q2duJgZ4STVSI7_JrXco-59" edge="1">
          <mxGeometry relative="1" as="geometry">
            <mxPoint x="200" y="1020" as="targetPoint" />
            <Array as="points">
              <mxPoint x="240" y="1100" />
              <mxPoint x="240" y="1020" />
            </Array>
          </mxGeometry>
        </mxCell>
        <mxCell id="Q2duJgZ4STVSI7_JrXco-58" style="edgeStyle=orthogonalEdgeStyle;rounded=0;orthogonalLoop=1;jettySize=auto;html=1;" parent="oyPLQnZpYdEiHO4VfaXY-1" source="Q2duJgZ4STVSI7_JrXco-59" edge="1">
          <mxGeometry relative="1" as="geometry">
            <mxPoint x="120" y="1160" as="targetPoint" />
          </mxGeometry>
        </mxCell>
        <mxCell id="Q2duJgZ4STVSI7_JrXco-59" value="notFCBUS" style="shape=hexagon;perimeter=hexagonPerimeter2;whiteSpace=wrap;html=1;fixedSize=1;" parent="oyPLQnZpYdEiHO4VfaXY-1" vertex="1">
          <mxGeometry x="40" y="1080" width="160" height="40" as="geometry" />
        </mxCell>
        <mxCell id="Q2duJgZ4STVSI7_JrXco-60" value="1" style="text;html=1;strokeColor=none;fillColor=none;align=center;verticalAlign=middle;whiteSpace=wrap;rounded=0;" parent="oyPLQnZpYdEiHO4VfaXY-1" vertex="1">
          <mxGeometry x="200" y="1080" width="40" height="20" as="geometry" />
        </mxCell>
        <mxCell id="Q2duJgZ4STVSI7_JrXco-61" value="0" style="text;html=1;strokeColor=none;fillColor=none;align=center;verticalAlign=middle;whiteSpace=wrap;rounded=0;" parent="oyPLQnZpYdEiHO4VfaXY-1" vertex="1">
          <mxGeometry x="80" y="1130" width="40" height="20" as="geometry" />
        </mxCell>
        <mxCell id="Q2duJgZ4STVSI7_JrXco-67" style="edgeStyle=orthogonalEdgeStyle;rounded=0;orthogonalLoop=1;jettySize=auto;html=1;entryX=0.5;entryY=0;entryDx=0;entryDy=0;" parent="oyPLQnZpYdEiHO4VfaXY-1" edge="1">
          <mxGeometry relative="1" as="geometry">
            <mxPoint x="400" y="40" as="sourcePoint" />
            <mxPoint x="400" y="80" as="targetPoint" />
          </mxGeometry>
        </mxCell>
        <mxCell id="Q2duJgZ4STVSI7_JrXco-79" value="" style="edgeStyle=orthogonalEdgeStyle;rounded=0;orthogonalLoop=1;jettySize=auto;html=1;" parent="oyPLQnZpYdEiHO4VfaXY-1" source="Q2duJgZ4STVSI7_JrXco-71" target="Q2duJgZ4STVSI7_JrXco-73" edge="1">
          <mxGeometry relative="1" as="geometry" />
        </mxCell>
        <mxCell id="Q2duJgZ4STVSI7_JrXco-71" value="decSP, ldMAR, mxMAR0, mxMAR2, ldMDR, mxMDR2" style="rounded=0;whiteSpace=wrap;html=1;" parent="oyPLQnZpYdEiHO4VfaXY-1" vertex="1">
          <mxGeometry x="320" y="80" width="160" height="40" as="geometry" />
        </mxCell>
        <mxCell id="Q2duJgZ4STVSI7_JrXco-72" style="edgeStyle=orthogonalEdgeStyle;rounded=0;orthogonalLoop=1;jettySize=auto;html=1;" parent="oyPLQnZpYdEiHO4VfaXY-1" source="Q2duJgZ4STVSI7_JrXco-73" edge="1">
          <mxGeometry relative="1" as="geometry">
            <mxPoint x="400" y="240" as="targetPoint" />
          </mxGeometry>
        </mxCell>
        <mxCell id="Q2duJgZ4STVSI7_JrXco-73" value="wrMEM" style="rounded=0;whiteSpace=wrap;html=1;" parent="oyPLQnZpYdEiHO4VfaXY-1" vertex="1">
          <mxGeometry x="320" y="160" width="160" height="40" as="geometry" />
        </mxCell>
        <mxCell id="Q2duJgZ4STVSI7_JrXco-74" style="edgeStyle=orthogonalEdgeStyle;rounded=0;orthogonalLoop=1;jettySize=auto;html=1;entryX=1;entryY=0.5;entryDx=0;entryDy=0;" parent="oyPLQnZpYdEiHO4VfaXY-1" source="Q2duJgZ4STVSI7_JrXco-76" edge="1">
          <mxGeometry relative="1" as="geometry">
            <mxPoint x="480" y="180" as="targetPoint" />
            <Array as="points">
              <mxPoint x="520" y="260" />
              <mxPoint x="520" y="180" />
            </Array>
          </mxGeometry>
        </mxCell>
        <mxCell id="Q2duJgZ4STVSI7_JrXco-75" style="edgeStyle=orthogonalEdgeStyle;rounded=0;orthogonalLoop=1;jettySize=auto;html=1;" parent="oyPLQnZpYdEiHO4VfaXY-1" source="Q2duJgZ4STVSI7_JrXco-76" edge="1">
          <mxGeometry relative="1" as="geometry">
            <mxPoint x="400" y="320" as="targetPoint" />
          </mxGeometry>
        </mxCell>
        <mxCell id="Q2duJgZ4STVSI7_JrXco-76" value="notFCBUS" style="shape=hexagon;perimeter=hexagonPerimeter2;whiteSpace=wrap;html=1;fixedSize=1;" parent="oyPLQnZpYdEiHO4VfaXY-1" vertex="1">
          <mxGeometry x="320" y="240" width="160" height="40" as="geometry" />
        </mxCell>
        <mxCell id="Q2duJgZ4STVSI7_JrXco-77" value="1" style="text;html=1;strokeColor=none;fillColor=none;align=center;verticalAlign=middle;whiteSpace=wrap;rounded=0;" parent="oyPLQnZpYdEiHO4VfaXY-1" vertex="1">
          <mxGeometry x="480" y="240" width="40" height="20" as="geometry" />
        </mxCell>
        <mxCell id="Q2duJgZ4STVSI7_JrXco-78" value="0" style="text;html=1;strokeColor=none;fillColor=none;align=center;verticalAlign=middle;whiteSpace=wrap;rounded=0;" parent="oyPLQnZpYdEiHO4VfaXY-1" vertex="1">
          <mxGeometry x="360" y="290" width="40" height="20" as="geometry" />
        </mxCell>
        <mxCell id="Q2duJgZ4STVSI7_JrXco-107" value="END" style="rounded=0;whiteSpace=wrap;html=1;" parent="oyPLQnZpYdEiHO4VfaXY-1" vertex="1">
          <mxGeometry x="240" y="330" width="40" height="20" as="geometry" />
        </mxCell>
        <mxCell id="Q2duJgZ4STVSI7_JrXco-117" value="ldPC, mxPC0, incMAR" style="rounded=0;whiteSpace=wrap;html=1;" parent="oyPLQnZpYdEiHO4VfaXY-1" vertex="1">
          <mxGeometry x="600" y="80" width="160" height="40" as="geometry" />
        </mxCell>
        <mxCell id="Q2duJgZ4STVSI7_JrXco-118" value="" style="edgeStyle=orthogonalEdgeStyle;rounded=0;orthogonalLoop=1;jettySize=auto;html=1;" parent="oyPLQnZpYdEiHO4VfaXY-1" target="Q2duJgZ4STVSI7_JrXco-120" edge="1">
          <mxGeometry relative="1" as="geometry">
            <mxPoint x="680" y="120" as="sourcePoint" />
          </mxGeometry>
        </mxCell>
        <mxCell id="Q2duJgZ4STVSI7_JrXco-119" style="edgeStyle=orthogonalEdgeStyle;rounded=0;orthogonalLoop=1;jettySize=auto;html=1;" parent="oyPLQnZpYdEiHO4VfaXY-1" source="Q2duJgZ4STVSI7_JrXco-120" edge="1">
          <mxGeometry relative="1" as="geometry">
            <mxPoint x="680" y="240" as="targetPoint" />
          </mxGeometry>
        </mxCell>
        <mxCell id="Q2duJgZ4STVSI7_JrXco-120" value="rdMEM, ldMDR" style="rounded=0;whiteSpace=wrap;html=1;" parent="oyPLQnZpYdEiHO4VfaXY-1" vertex="1">
          <mxGeometry x="600" y="160" width="160" height="40" as="geometry" />
        </mxCell>
        <mxCell id="Q2duJgZ4STVSI7_JrXco-121" style="edgeStyle=orthogonalEdgeStyle;rounded=0;orthogonalLoop=1;jettySize=auto;html=1;entryX=1;entryY=0.5;entryDx=0;entryDy=0;" parent="oyPLQnZpYdEiHO4VfaXY-1" source="Q2duJgZ4STVSI7_JrXco-123" edge="1">
          <mxGeometry relative="1" as="geometry">
            <mxPoint x="760" y="180" as="targetPoint" />
            <Array as="points">
              <mxPoint x="800" y="260" />
              <mxPoint x="800" y="180" />
            </Array>
          </mxGeometry>
        </mxCell>
        <mxCell id="Q2duJgZ4STVSI7_JrXco-122" style="edgeStyle=orthogonalEdgeStyle;rounded=0;orthogonalLoop=1;jettySize=auto;html=1;" parent="oyPLQnZpYdEiHO4VfaXY-1" source="Q2duJgZ4STVSI7_JrXco-123" edge="1">
          <mxGeometry relative="1" as="geometry">
            <mxPoint x="680" y="320" as="targetPoint" />
          </mxGeometry>
        </mxCell>
        <mxCell id="Q2duJgZ4STVSI7_JrXco-123" value="notFCBUS" style="shape=hexagon;perimeter=hexagonPerimeter2;whiteSpace=wrap;html=1;fixedSize=1;" parent="oyPLQnZpYdEiHO4VfaXY-1" vertex="1">
          <mxGeometry x="600" y="240" width="160" height="40" as="geometry" />
        </mxCell>
        <mxCell id="Q2duJgZ4STVSI7_JrXco-124" value="1" style="text;html=1;strokeColor=none;fillColor=none;align=center;verticalAlign=middle;whiteSpace=wrap;rounded=0;" parent="oyPLQnZpYdEiHO4VfaXY-1" vertex="1">
          <mxGeometry x="760" y="240" width="40" height="20" as="geometry" />
        </mxCell>
        <mxCell id="Q2duJgZ4STVSI7_JrXco-125" value="0" style="text;html=1;strokeColor=none;fillColor=none;align=center;verticalAlign=middle;whiteSpace=wrap;rounded=0;" parent="oyPLQnZpYdEiHO4VfaXY-1" vertex="1">
          <mxGeometry x="640" y="290" width="40" height="20" as="geometry" />
        </mxCell>
        <mxCell id="Q2duJgZ4STVSI7_JrXco-126" style="edgeStyle=orthogonalEdgeStyle;rounded=0;orthogonalLoop=1;jettySize=auto;html=1;" parent="oyPLQnZpYdEiHO4VfaXY-1" source="Q2duJgZ4STVSI7_JrXco-127" edge="1">
          <mxGeometry relative="1" as="geometry">
            <mxPoint x="680" y="400" as="targetPoint" />
          </mxGeometry>
        </mxCell>
        <mxCell id="Q2duJgZ4STVSI7_JrXco-127" value="ldPC, mxPC1, ldBR" style="rounded=0;whiteSpace=wrap;html=1;" parent="oyPLQnZpYdEiHO4VfaXY-1" vertex="1">
          <mxGeometry x="600" y="320" width="160" height="40" as="geometry" />
        </mxCell>
        <mxCell id="Q2duJgZ4STVSI7_JrXco-128" style="edgeStyle=orthogonalEdgeStyle;rounded=0;orthogonalLoop=1;jettySize=auto;html=1;entryX=0.5;entryY=0;entryDx=0;entryDy=0;" parent="oyPLQnZpYdEiHO4VfaXY-1" source="Q2duJgZ4STVSI7_JrXco-129" target="Q2duJgZ4STVSI7_JrXco-130" edge="1">
          <mxGeometry relative="1" as="geometry" />
        </mxCell>
        <mxCell id="Q2duJgZ4STVSI7_JrXco-129" value="clINTR, stFETCH" style="rounded=0;whiteSpace=wrap;html=1;" parent="oyPLQnZpYdEiHO4VfaXY-1" vertex="1">
          <mxGeometry x="600" y="400" width="160" height="40" as="geometry" />
        </mxCell>
        <mxCell id="Q2duJgZ4STVSI7_JrXco-130" value="INTR" style="rounded=0;whiteSpace=wrap;html=1;" parent="oyPLQnZpYdEiHO4VfaXY-1" vertex="1">
          <mxGeometry x="660" y="460" width="40" height="20" as="geometry" />
        </mxCell>
        <mxCell id="Q2duJgZ4STVSI7_JrXco-131" style="edgeStyle=orthogonalEdgeStyle;rounded=0;orthogonalLoop=1;jettySize=auto;html=1;entryX=0;entryY=0.5;entryDx=0;entryDy=0;" parent="oyPLQnZpYdEiHO4VfaXY-1" source="Q2duJgZ4STVSI7_JrXco-132" target="Q2duJgZ4STVSI7_JrXco-129" edge="1">
          <mxGeometry relative="1" as="geometry" />
        </mxCell>
        <mxCell id="Q2duJgZ4STVSI7_JrXco-132" value="END" style="rounded=0;whiteSpace=wrap;html=1;" parent="oyPLQnZpYdEiHO4VfaXY-1" vertex="1">
          <mxGeometry x="520" y="410" width="40" height="20" as="geometry" />
        </mxCell>
        <mxCell id="Q2duJgZ4STVSI7_JrXco-133" style="edgeStyle=orthogonalEdgeStyle;rounded=0;orthogonalLoop=1;jettySize=auto;html=1;entryX=0.5;entryY=0;entryDx=0;entryDy=0;" parent="oyPLQnZpYdEiHO4VfaXY-1" source="Q2duJgZ4STVSI7_JrXco-134" target="Q2duJgZ4STVSI7_JrXco-136" edge="1">
          <mxGeometry relative="1" as="geometry" />
        </mxCell>
        <mxCell id="Q2duJgZ4STVSI7_JrXco-134" value="decSP, ldMAR, mxMAR0, mxMAR2, ldMDR, mxMDR0, mxMDR2" style="rounded=0;whiteSpace=wrap;html=1;" parent="oyPLQnZpYdEiHO4VfaXY-1" vertex="1">
          <mxGeometry x="320" y="320" width="160" height="80" as="geometry" />
        </mxCell>
        <mxCell id="Q2duJgZ4STVSI7_JrXco-135" style="edgeStyle=orthogonalEdgeStyle;rounded=0;orthogonalLoop=1;jettySize=auto;html=1;" parent="oyPLQnZpYdEiHO4VfaXY-1" source="Q2duJgZ4STVSI7_JrXco-136" edge="1">
          <mxGeometry relative="1" as="geometry">
            <mxPoint x="400" y="520" as="targetPoint" />
          </mxGeometry>
        </mxCell>
        <mxCell id="Q2duJgZ4STVSI7_JrXco-136" value="wrMEM" style="rounded=0;whiteSpace=wrap;html=1;" parent="oyPLQnZpYdEiHO4VfaXY-1" vertex="1">
          <mxGeometry x="320" y="440" width="160" height="40" as="geometry" />
        </mxCell>
        <mxCell id="Q2duJgZ4STVSI7_JrXco-137" style="edgeStyle=orthogonalEdgeStyle;rounded=0;orthogonalLoop=1;jettySize=auto;html=1;entryX=1;entryY=0.5;entryDx=0;entryDy=0;" parent="oyPLQnZpYdEiHO4VfaXY-1" source="Q2duJgZ4STVSI7_JrXco-139" edge="1">
          <mxGeometry relative="1" as="geometry">
            <mxPoint x="480" y="460" as="targetPoint" />
            <Array as="points">
              <mxPoint x="520" y="540" />
              <mxPoint x="520" y="460" />
            </Array>
          </mxGeometry>
        </mxCell>
        <mxCell id="Q2duJgZ4STVSI7_JrXco-138" style="edgeStyle=orthogonalEdgeStyle;rounded=0;orthogonalLoop=1;jettySize=auto;html=1;" parent="oyPLQnZpYdEiHO4VfaXY-1" source="Q2duJgZ4STVSI7_JrXco-139" edge="1">
          <mxGeometry relative="1" as="geometry">
            <mxPoint x="400" y="600" as="targetPoint" />
          </mxGeometry>
        </mxCell>
        <mxCell id="Q2duJgZ4STVSI7_JrXco-139" value="notFCBUS" style="shape=hexagon;perimeter=hexagonPerimeter2;whiteSpace=wrap;html=1;fixedSize=1;" parent="oyPLQnZpYdEiHO4VfaXY-1" vertex="1">
          <mxGeometry x="320" y="520" width="160" height="40" as="geometry" />
        </mxCell>
        <mxCell id="Q2duJgZ4STVSI7_JrXco-140" value="1" style="text;html=1;strokeColor=none;fillColor=none;align=center;verticalAlign=middle;whiteSpace=wrap;rounded=0;" parent="oyPLQnZpYdEiHO4VfaXY-1" vertex="1">
          <mxGeometry x="480" y="520" width="40" height="20" as="geometry" />
        </mxCell>
        <mxCell id="Q2duJgZ4STVSI7_JrXco-141" value="0" style="text;html=1;strokeColor=none;fillColor=none;align=center;verticalAlign=middle;whiteSpace=wrap;rounded=0;" parent="oyPLQnZpYdEiHO4VfaXY-1" vertex="1">
          <mxGeometry x="360" y="570" width="40" height="20" as="geometry" />
        </mxCell>
        <mxCell id="Q2duJgZ4STVSI7_JrXco-142" style="edgeStyle=orthogonalEdgeStyle;rounded=0;orthogonalLoop=1;jettySize=auto;html=1;entryX=0.5;entryY=0;entryDx=0;entryDy=0;" parent="oyPLQnZpYdEiHO4VfaXY-1" source="Q2duJgZ4STVSI7_JrXco-143" target="Q2duJgZ4STVSI7_JrXco-145" edge="1">
          <mxGeometry relative="1" as="geometry" />
        </mxCell>
        <mxCell id="Q2duJgZ4STVSI7_JrXco-143" value="decSP, ldMAR, mxMAR0, mxMAR2, ldMDR, mxMDR1, mxMDR2" style="rounded=0;whiteSpace=wrap;html=1;" parent="oyPLQnZpYdEiHO4VfaXY-1" vertex="1">
          <mxGeometry x="320" y="600" width="160" height="80" as="geometry" />
        </mxCell>
        <mxCell id="Q2duJgZ4STVSI7_JrXco-144" style="edgeStyle=orthogonalEdgeStyle;rounded=0;orthogonalLoop=1;jettySize=auto;html=1;" parent="oyPLQnZpYdEiHO4VfaXY-1" source="Q2duJgZ4STVSI7_JrXco-145" edge="1">
          <mxGeometry relative="1" as="geometry">
            <mxPoint x="400" y="800" as="targetPoint" />
          </mxGeometry>
        </mxCell>
        <mxCell id="Q2duJgZ4STVSI7_JrXco-145" value="wrMEM" style="rounded=0;whiteSpace=wrap;html=1;" parent="oyPLQnZpYdEiHO4VfaXY-1" vertex="1">
          <mxGeometry x="320" y="720" width="160" height="40" as="geometry" />
        </mxCell>
        <mxCell id="Q2duJgZ4STVSI7_JrXco-146" style="edgeStyle=orthogonalEdgeStyle;rounded=0;orthogonalLoop=1;jettySize=auto;html=1;entryX=1;entryY=0.5;entryDx=0;entryDy=0;" parent="oyPLQnZpYdEiHO4VfaXY-1" source="Q2duJgZ4STVSI7_JrXco-148" edge="1">
          <mxGeometry relative="1" as="geometry">
            <mxPoint x="480" y="740" as="targetPoint" />
            <Array as="points">
              <mxPoint x="520" y="820" />
              <mxPoint x="520" y="740" />
            </Array>
          </mxGeometry>
        </mxCell>
        <mxCell id="Q2duJgZ4STVSI7_JrXco-147" style="edgeStyle=orthogonalEdgeStyle;rounded=0;orthogonalLoop=1;jettySize=auto;html=1;" parent="oyPLQnZpYdEiHO4VfaXY-1" source="Q2duJgZ4STVSI7_JrXco-148" edge="1">
          <mxGeometry relative="1" as="geometry">
            <mxPoint x="400" y="880" as="targetPoint" />
          </mxGeometry>
        </mxCell>
        <mxCell id="Q2duJgZ4STVSI7_JrXco-148" value="notFCBUS" style="shape=hexagon;perimeter=hexagonPerimeter2;whiteSpace=wrap;html=1;fixedSize=1;" parent="oyPLQnZpYdEiHO4VfaXY-1" vertex="1">
          <mxGeometry x="320" y="800" width="160" height="40" as="geometry" />
        </mxCell>
        <mxCell id="Q2duJgZ4STVSI7_JrXco-149" value="1" style="text;html=1;strokeColor=none;fillColor=none;align=center;verticalAlign=middle;whiteSpace=wrap;rounded=0;" parent="oyPLQnZpYdEiHO4VfaXY-1" vertex="1">
          <mxGeometry x="480" y="800" width="40" height="20" as="geometry" />
        </mxCell>
        <mxCell id="Q2duJgZ4STVSI7_JrXco-150" value="0" style="text;html=1;strokeColor=none;fillColor=none;align=center;verticalAlign=middle;whiteSpace=wrap;rounded=0;" parent="oyPLQnZpYdEiHO4VfaXY-1" vertex="1">
          <mxGeometry x="360" y="850" width="40" height="20" as="geometry" />
        </mxCell>
        <mxCell id="Q2duJgZ4STVSI7_JrXco-151" value="" style="edgeStyle=orthogonalEdgeStyle;rounded=0;orthogonalLoop=1;jettySize=auto;html=1;" parent="oyPLQnZpYdEiHO4VfaXY-1" source="Q2duJgZ4STVSI7_JrXco-152" target="Q2duJgZ4STVSI7_JrXco-154" edge="1">
          <mxGeometry relative="1" as="geometry" />
        </mxCell>
        <mxCell id="Q2duJgZ4STVSI7_JrXco-152" value="ldMAR, mxMAR0, mxMAR2" style="rounded=0;whiteSpace=wrap;html=1;" parent="oyPLQnZpYdEiHO4VfaXY-1" vertex="1">
          <mxGeometry x="320" y="880" width="160" height="40" as="geometry" />
        </mxCell>
        <mxCell id="Q2duJgZ4STVSI7_JrXco-153" style="edgeStyle=orthogonalEdgeStyle;rounded=0;orthogonalLoop=1;jettySize=auto;html=1;" parent="oyPLQnZpYdEiHO4VfaXY-1" source="Q2duJgZ4STVSI7_JrXco-154" edge="1">
          <mxGeometry relative="1" as="geometry">
            <mxPoint x="400" y="1040" as="targetPoint" />
          </mxGeometry>
        </mxCell>
        <mxCell id="Q2duJgZ4STVSI7_JrXco-154" value="rdMEM, ldMDR" style="rounded=0;whiteSpace=wrap;html=1;" parent="oyPLQnZpYdEiHO4VfaXY-1" vertex="1">
          <mxGeometry x="320" y="960" width="160" height="40" as="geometry" />
        </mxCell>
        <mxCell id="Q2duJgZ4STVSI7_JrXco-155" style="edgeStyle=orthogonalEdgeStyle;rounded=0;orthogonalLoop=1;jettySize=auto;html=1;entryX=1;entryY=0.5;entryDx=0;entryDy=0;" parent="oyPLQnZpYdEiHO4VfaXY-1" source="Q2duJgZ4STVSI7_JrXco-157" edge="1">
          <mxGeometry relative="1" as="geometry">
            <mxPoint x="480" y="980" as="targetPoint" />
            <Array as="points">
              <mxPoint x="520" y="1060" />
              <mxPoint x="520" y="980" />
            </Array>
          </mxGeometry>
        </mxCell>
        <mxCell id="Q2duJgZ4STVSI7_JrXco-156" style="edgeStyle=orthogonalEdgeStyle;rounded=0;orthogonalLoop=1;jettySize=auto;html=1;" parent="oyPLQnZpYdEiHO4VfaXY-1" source="Q2duJgZ4STVSI7_JrXco-157" edge="1">
          <mxGeometry relative="1" as="geometry">
            <mxPoint x="400" y="1120" as="targetPoint" />
          </mxGeometry>
        </mxCell>
        <mxCell id="Q2duJgZ4STVSI7_JrXco-157" value="notFCBUS" style="shape=hexagon;perimeter=hexagonPerimeter2;whiteSpace=wrap;html=1;fixedSize=1;" parent="oyPLQnZpYdEiHO4VfaXY-1" vertex="1">
          <mxGeometry x="320" y="1040" width="160" height="40" as="geometry" />
        </mxCell>
        <mxCell id="Q2duJgZ4STVSI7_JrXco-158" value="1" style="text;html=1;strokeColor=none;fillColor=none;align=center;verticalAlign=middle;whiteSpace=wrap;rounded=0;" parent="oyPLQnZpYdEiHO4VfaXY-1" vertex="1">
          <mxGeometry x="480" y="1040" width="40" height="20" as="geometry" />
        </mxCell>
        <mxCell id="Q2duJgZ4STVSI7_JrXco-159" value="0" style="text;html=1;strokeColor=none;fillColor=none;align=center;verticalAlign=middle;whiteSpace=wrap;rounded=0;" parent="oyPLQnZpYdEiHO4VfaXY-1" vertex="1">
          <mxGeometry x="360" y="1090" width="40" height="20" as="geometry" />
        </mxCell>
      </root>
    </mxGraphModel>
  </diagram>
</mxfile>
